<?xml version="1.0" encoding="utf-8"?>
<!-- Generator: Adobe Illustrator 19.0.0, SVG Export Plug-In . SVG Version: 6.00 Build 0)  -->
<svg version="1.1" id="Mia_Barcelona_LockUp" xmlns="http://www.w3.org/2000/svg" xmlns:xlink="http://www.w3.org/1999/xlink"
	 x="0px" y="0px" width="362.5px" height="421.8px" viewBox="0 0 362.5 421.8" style="enable-background:new 0 0 362.5 421.8;"
	 xml:space="preserve">
<style type="text/css">
	.st0{clip-path:url(#SVGID_2_);fill:#E36009;}
	.st1{clip-path:url(#SVGID_2_);fill:#7CC9E9;}
	.st2{clip-path:url(#SVGID_2_);fill:#685C77;}
	.st3{clip-path:url(#SVGID_2_);fill:#6DA123;}
	.st4{clip-path:url(#SVGID_2_);fill:#D95009;}
	.st5{clip-path:url(#SVGID_2_);fill:#D25002;}
	.st6{clip-path:url(#SVGID_2_);fill:#BC7CA6;}
	.st7{clip-path:url(#SVGID_2_);fill:#E3620A;}
	.st8{clip-path:url(#SVGID_2_);fill:#D94A05;}
	.st9{clip-path:url(#SVGID_2_);fill:#B6D2DA;}
	.st10{clip-path:url(#SVGID_2_);fill:#609024;}
	.st11{clip-path:url(#SVGID_2_);fill:#F5CD00;}
	.st12{clip-path:url(#SVGID_2_);fill:#EFE500;}
	.st13{clip-path:url(#SVGID_2_);fill:#009932;}
	.st14{clip-path:url(#SVGID_2_);fill:#F5AC00;}
	.st15{clip-path:url(#SVGID_2_);fill:#007C31;}
	.st16{clip-path:url(#SVGID_2_);fill:#71A923;}
	.st17{clip-path:url(#SVGID_2_);fill:#EFC94C;}
	.st18{clip-path:url(#SVGID_2_);fill:#E55715;}
	.st19{clip-path:url(#SVGID_2_);fill:#BFD01B;}
	.st20{clip-path:url(#SVGID_2_);fill:#BFD014;}
	.st21{clip-path:url(#SVGID_2_);fill:#F19A00;}
	.st22{clip-path:url(#SVGID_2_);fill:#E86627;}
	.st23{clip-path:url(#SVGID_2_);fill:#00963A;}
	.st24{clip-path:url(#SVGID_2_);fill:#74B222;}
	.st25{clip-path:url(#SVGID_2_);fill:#AADAF0;}
	.st26{clip-path:url(#SVGID_2_);fill:#8564A3;}
	.st27{clip-path:url(#SVGID_2_);fill:#E7C0C0;}
	.st28{clip-path:url(#SVGID_2_);fill:#F4A800;}
	.st29{clip-path:url(#SVGID_2_);fill:#438528;}
	.st30{clip-path:url(#SVGID_2_);fill:#74981F;}
	.st31{clip-path:url(#SVGID_2_);fill:#EB7B1C;}
	.st32{clip-path:url(#SVGID_2_);fill:#F7B600;}
	.st33{clip-path:url(#SVGID_2_);fill:#87A719;}
	.st34{clip-path:url(#SVGID_2_);fill:#009933;}
	.st35{clip-path:url(#SVGID_2_);fill:#70941F;}
	.st36{clip-path:url(#SVGID_2_);fill:#741968;}
	.st37{clip-path:url(#SVGID_2_);fill:#EB791C;}
	.st38{clip-path:url(#SVGID_2_);fill:#E96F23;}
	.st39{clip-path:url(#SVGID_2_);fill:#83760C;}
	.st40{clip-path:url(#SVGID_2_);fill:#E1C949;}
	.st41{clip-path:url(#SVGID_2_);fill:#DC6200;}
	.st42{clip-path:url(#SVGID_2_);fill:#E7712D;}
	.st43{clip-path:url(#SVGID_2_);fill:#E76B21;}
	.st44{clip-path:url(#SVGID_2_);fill:#FCCC00;}
	.st45{clip-path:url(#SVGID_2_);fill:#E86429;}
	.st46{clip-path:url(#SVGID_2_);fill:#840973;}
	.st47{clip-path:url(#SVGID_2_);fill:#C483B3;}
	.st48{clip-path:url(#SVGID_2_);fill:#442352;}
	.st49{clip-path:url(#SVGID_2_);fill:#6B9421;}
	.st50{clip-path:url(#SVGID_2_);fill:#EF8F00;}
	.st51{clip-path:url(#SVGID_2_);fill:#008764;}
	.st52{clip-path:url(#SVGID_2_);fill:#442152;}
	.st53{clip-path:url(#SVGID_2_);fill:#DB6000;}
	.st54{clip-path:url(#SVGID_2_);fill:#722B89;}
	.st55{clip-path:url(#SVGID_2_);fill:#E86F2C;}
	.st56{clip-path:url(#SVGID_2_);fill:#7AAC20;}
	.st57{clip-path:url(#SVGID_2_);fill:#D6621A;}
	.st58{clip-path:url(#SVGID_2_);fill:#DD6A2A;}
	.st59{clip-path:url(#SVGID_2_);fill:#E56024;}
	.st60{clip-path:url(#SVGID_2_);fill:#E26B27;}
	.st61{clip-path:url(#SVGID_2_);fill:#A2007D;}
	.st62{clip-path:url(#SVGID_2_);fill:#E76E22;}
	.st63{clip-path:url(#SVGID_2_);fill:#699422;}
	.st64{clip-path:url(#SVGID_2_);fill:#E06414;}
	.st65{clip-path:url(#SVGID_2_);fill:#E36612;}
	.st66{clip-path:url(#SVGID_2_);fill:#DF6415;}
	.st67{clip-path:url(#SVGID_2_);fill:#77AF21;}
	.st68{clip-path:url(#SVGID_2_);fill:#483E49;}
	.st69{clip-path:url(#SVGID_2_);fill:#E3661C;}
	.st70{clip-path:url(#SVGID_2_);fill:#81B71E;}
	.st71{clip-path:url(#SVGID_2_);fill:#369F2E;}
	.st72{clip-path:url(#SVGID_2_);fill:#CD729D;}
	.st73{clip-path:url(#SVGID_2_);fill:#E66161;}
	.st74{clip-path:url(#SVGID_2_);fill:#74A822;}
	.st75{clip-path:url(#SVGID_2_);fill:#E4630B;}
	.st76{clip-path:url(#SVGID_2_);fill:#E23431;}
	.st77{clip-path:url(#SVGID_2_);fill:#EAC573;}
	.st78{clip-path:url(#SVGID_2_);fill:#E593B0;}
	.st79{clip-path:url(#SVGID_2_);fill:#E8C772;}
	.st80{clip-path:url(#SVGID_2_);fill:#F2B3B7;}
	.st81{clip-path:url(#SVGID_2_);fill:#998B03;}
	.st82{clip-path:url(#SVGID_2_);fill:#E1BBAD;}
	.st83{clip-path:url(#SVGID_2_);fill:#13450C;}
	.st84{clip-path:url(#SVGID_2_);fill:#C60042;}
	.st85{clip-path:url(#SVGID_2_);fill:#40562E;}
	.st86{clip-path:url(#SVGID_2_);fill:#BD082B;}
	.st87{clip-path:url(#SVGID_2_);fill:#88A518;}
	.st88{clip-path:url(#SVGID_2_);fill:#E2BEBD;}
	.st89{clip-path:url(#SVGID_2_);fill:#E4C340;}
	.st90{clip-path:url(#SVGID_2_);fill:#91C4DB;}
	.st91{clip-path:url(#SVGID_2_);fill:#DD360E;}
	.st92{clip-path:url(#SVGID_2_);fill:#6D0813;}
	.st93{clip-path:url(#SVGID_2_);fill:#B2B8CE;}
	.st94{clip-path:url(#SVGID_2_);fill:#007233;}
	.st95{clip-path:url(#SVGID_2_);fill:#4C6E1D;}
	.st96{clip-path:url(#SVGID_2_);fill:#CB8DB5;}
	.st97{clip-path:url(#SVGID_2_);fill:#4F6A47;}
	.st98{clip-path:url(#SVGID_2_);fill:#E02027;}
	.st99{clip-path:url(#SVGID_2_);fill:#CB0325;}
	.st100{clip-path:url(#SVGID_2_);fill:#F3B096;}
	.st101{clip-path:url(#SVGID_2_);fill:#8BC7C5;}
	.st102{clip-path:url(#SVGID_2_);fill:#DBCFCA;}
	.st103{clip-path:url(#SVGID_2_);fill:#D20123;}
	.st104{clip-path:url(#SVGID_2_);fill:#4A4723;}
	.st105{clip-path:url(#SVGID_2_);fill:#E23230;}
	.st106{clip-path:url(#SVGID_2_);fill:#90AC15;}
	.st107{clip-path:url(#SVGID_2_);fill:#6F681C;}
	.st108{clip-path:url(#SVGID_2_);fill:#585074;}
	.st109{clip-path:url(#SVGID_2_);fill:#9C101C;}
	.st110{clip-path:url(#SVGID_2_);fill:#556E43;}
	.st111{clip-path:url(#SVGID_2_);fill:#87C7C6;}
	.st112{clip-path:url(#SVGID_2_);fill:#88C6C5;}
	.st113{clip-path:url(#SVGID_2_);fill:#BA0A1F;}
	.st114{clip-path:url(#SVGID_2_);fill:#D51E63;}
	.st115{clip-path:url(#SVGID_2_);fill:#CC041D;}
	.st116{clip-path:url(#SVGID_2_);fill:#B87AA3;}
	.st117{clip-path:url(#SVGID_2_);fill:#D2748F;}
	.st118{clip-path:url(#SVGID_2_);fill:#EAB703;}
	.st119{clip-path:url(#SVGID_2_);fill:#97C1C0;}
	.st120{clip-path:url(#SVGID_2_);fill:#DD5007;}
	.st121{clip-path:url(#SVGID_2_);fill:#C687B7;}
	.st122{clip-path:url(#SVGID_2_);fill:#00410C;}
	.st123{clip-path:url(#SVGID_2_);fill:#8D0481;}
	.st124{clip-path:url(#SVGID_2_);fill:#007194;}
	.st125{clip-path:url(#SVGID_2_);fill:#74BCE3;}
	.st126{clip-path:url(#SVGID_2_);fill:#4E476D;}
	.st127{clip-path:url(#SVGID_2_);fill:#D41B4E;}
	.st128{clip-path:url(#SVGID_2_);fill:#E86527;}
	.st129{clip-path:url(#SVGID_2_);fill:#0099B0;}
	.st130{clip-path:url(#SVGID_2_);fill:#003C09;}
	.st131{clip-path:url(#SVGID_2_);fill:#968804;}
	.st132{clip-path:url(#SVGID_2_);fill:#009DB3;}
	.st133{clip-path:url(#SVGID_2_);fill:#7D6E88;}
	.st134{clip-path:url(#SVGID_2_);fill:#71BBAD;}
	.st135{clip-path:url(#SVGID_2_);fill:#DE3B6D;}
	.st136{clip-path:url(#SVGID_2_);fill:#E06500;}
	.st137{clip-path:url(#SVGID_2_);fill:#3A552A;}
	.st138{clip-path:url(#SVGID_2_);fill:#610311;}
	.st139{clip-path:url(#SVGID_2_);fill:#003F08;}
	.st140{clip-path:url(#SVGID_2_);fill:#7B6F84;}
	.st141{clip-path:url(#SVGID_2_);fill:#D32163;}
	.st142{clip-path:url(#SVGID_2_);fill:#B7A6C2;}
	.st143{clip-path:url(#SVGID_2_);fill:#80B11E;}
	.st144{clip-path:url(#SVGID_2_);fill:#BD7CA6;}
	.st145{clip-path:url(#SVGID_2_);fill:#AEB5CB;}
	.st146{clip-path:url(#SVGID_2_);fill:#C80053;}
	.st147{clip-path:url(#SVGID_2_);fill:#756B86;}
	.st148{clip-path:url(#SVGID_2_);fill:#610310;}
	.st149{clip-path:url(#SVGID_2_);fill:#9ECCCA;}
	.st150{clip-path:url(#SVGID_2_);fill:#80BEBA;}
	.st151{clip-path:url(#SVGID_2_);fill:#ADB8CC;}
	.st152{clip-path:url(#SVGID_2_);fill:#ACB6CB;}
	.st153{clip-path:url(#SVGID_2_);fill:#EB781C;}
	.st154{clip-path:url(#SVGID_2_);fill:#E395B4;}
	.st155{clip-path:url(#SVGID_2_);fill:#E6A89E;}
	.st156{clip-path:url(#SVGID_2_);fill:#E26014;}
	.st157{clip-path:url(#SVGID_2_);fill:#7BB520;}
	.st158{clip-path:url(#SVGID_2_);fill:#E24E7E;}
	.st159{clip-path:url(#SVGID_2_);fill:#94B7D2;}
	.st160{clip-path:url(#SVGID_2_);fill:#75991F;}
	.st161{clip-path:url(#SVGID_2_);fill:#00792E;}
	.st162{clip-path:url(#SVGID_2_);fill:#332F47;}
	.st163{clip-path:url(#SVGID_2_);fill:#E76451;}
	.st164{clip-path:url(#SVGID_2_);fill:#76971E;}
	.st165{clip-path:url(#SVGID_2_);fill:#3F5D1B;}
	.st166{clip-path:url(#SVGID_2_);fill:#D9D700;}
	.st167{clip-path:url(#SVGID_2_);fill:#B70B1F;}
	.st168{clip-path:url(#SVGID_2_);fill:#6E0F73;}
	.st169{clip-path:url(#SVGID_2_);fill:#0C3E08;}
	.st170{clip-path:url(#SVGID_2_);fill:#E65D2B;}
	.st171{clip-path:url(#SVGID_2_);fill:#987EA7;}
	.st172{clip-path:url(#SVGID_2_);fill:#EB7B4A;}
	.st173{clip-path:url(#SVGID_2_);fill:#EA7850;}
	.st174{clip-path:url(#SVGID_2_);fill:#A78499;}
	.st175{clip-path:url(#SVGID_2_);fill:#609425;}
	.st176{clip-path:url(#SVGID_2_);fill:#EFC12C;}
	.st177{clip-path:url(#SVGID_2_);fill:#EE990F;}
	.st178{clip-path:url(#SVGID_2_);fill:#77AC21;}
	.st179{clip-path:url(#SVGID_2_);fill:#DB4F07;}
	.st180{clip-path:url(#SVGID_2_);fill:#DA91AD;}
	.st181{clip-path:url(#SVGID_2_);fill:#75AF22;}
	.st182{clip-path:url(#SVGID_2_);fill:#DF87A7;}
	.st183{clip-path:url(#SVGID_2_);fill:#8B513B;}
	.st184{clip-path:url(#SVGID_2_);fill:#4D6536;}
	.st185{clip-path:url(#SVGID_2_);fill:#DB4D21;}
	.st186{clip-path:url(#SVGID_2_);fill:#D74508;}
	.st187{clip-path:url(#SVGID_2_);fill:#E1550B;}
	.st188{clip-path:url(#SVGID_2_);fill:#B0BACF;}
	.st189{clip-path:url(#SVGID_2_);fill:#D2709B;}
	.st190{clip-path:url(#SVGID_2_);fill:#415A1F;}
	.st191{clip-path:url(#SVGID_2_);fill:#A4B2C5;}
	.st192{clip-path:url(#SVGID_2_);fill:#87A619;}
	.st193{clip-path:url(#SVGID_2_);fill:#007B2F;}
	.st194{clip-path:url(#SVGID_2_);fill:#70A823;}
	.st195{clip-path:url(#SVGID_2_);fill:#BC7FA9;}
	.st196{clip-path:url(#SVGID_2_);fill:#8AB543;}
	.st197{clip-path:url(#SVGID_2_);fill:#8C8D9A;}
	.st198{clip-path:url(#SVGID_2_);fill:#6DBBAD;}
	.st199{clip-path:url(#SVGID_2_);fill:#CEDFEF;}
	.st200{clip-path:url(#SVGID_2_);fill:#816B7A;}
	.st201{clip-path:url(#SVGID_2_);fill:#FED500;}
	.st202{clip-path:url(#SVGID_2_);fill:#E12E3A;}
	.st203{clip-path:url(#SVGID_2_);fill:#EED43D;}
	.st204{clip-path:url(#SVGID_2_);fill:#67A625;}
	.st205{clip-path:url(#SVGID_2_);fill:#DD8A9F;}
	.st206{clip-path:url(#SVGID_2_);fill:#9BBEC8;}
	.st207{clip-path:url(#SVGID_2_);fill:#6B9221;}
	.st208{clip-path:url(#SVGID_2_);fill:#DF8DA7;}
	.st209{clip-path:url(#SVGID_2_);fill:#9080AB;}
	.st210{clip-path:url(#SVGID_2_);fill:#E7634D;}
	.st211{clip-path:url(#SVGID_2_);fill:#A70E1E;}
	.st212{clip-path:url(#SVGID_2_);fill:#E66061;}
	.st213{clip-path:url(#SVGID_2_);fill:#BB091B;}
	.st214{clip-path:url(#SVGID_2_);fill:#36822A;}
	.st215{clip-path:url(#SVGID_2_);fill:#D2BF00;}
	.st216{clip-path:url(#SVGID_2_);fill:#565332;}
	.st217{clip-path:url(#SVGID_2_);fill:#534D2A;}
	.st218{clip-path:url(#SVGID_2_);fill:#D9001C;}
	.st219{clip-path:url(#SVGID_2_);fill:#A8842D;}
	.st220{clip-path:url(#SVGID_2_);fill:#A78435;}
	.st221{clip-path:url(#SVGID_2_);fill:#583E1E;}
	.st222{clip-path:url(#SVGID_2_);fill:#DC849B;}
	.st223{clip-path:url(#SVGID_2_);fill:#618721;}
	.st224{clip-path:url(#SVGID_2_);fill:#6A607D;}
	.st225{clip-path:url(#SVGID_2_);fill:#E48F24;}
	.st226{clip-path:url(#SVGID_2_);fill:#0F450D;}
	.st227{clip-path:url(#SVGID_2_);fill:#7F5C19;}
	.st228{clip-path:url(#SVGID_2_);fill:#00390B;}
	.st229{clip-path:url(#SVGID_2_);fill:#805E49;}
	.st230{clip-path:url(#SVGID_2_);fill:#023A0A;}
	.st231{clip-path:url(#SVGID_2_);fill:#003E08;}
	.st232{clip-path:url(#SVGID_2_);fill:#003B0A;}
	.st233{clip-path:url(#SVGID_2_);fill:#526743;}
	.st234{clip-path:url(#SVGID_2_);fill:#0E4008;}
	.st235{clip-path:url(#SVGID_2_);fill:#E13037;}
	.st236{clip-path:url(#SVGID_2_);fill:#D81F2C;}
	.st237{clip-path:url(#SVGID_2_);fill:#CF005D;}
	.st238{clip-path:url(#SVGID_2_);fill:#D2021E;}
	.st239{clip-path:url(#SVGID_2_);fill:#639524;}
	.st240{clip-path:url(#SVGID_2_);fill:#546D46;}
	.st241{clip-path:url(#SVGID_2_);fill:#D483A0;}
	.st242{clip-path:url(#SVGID_2_);fill:#EB771C;}
	.st243{clip-path:url(#SVGID_2_);fill:#CA005A;}
	.st244{clip-path:url(#SVGID_2_);fill:#77941C;}
	.st245{clip-path:url(#SVGID_2_);fill:#E1292D;}
	.st246{clip-path:url(#SVGID_2_);fill:#B18FA4;}
	.st247{clip-path:url(#SVGID_2_);fill:#E76124;}
	.st248{clip-path:url(#SVGID_2_);fill:#E6CC5F;}
	.st249{clip-path:url(#SVGID_2_);fill:#CC005D;}
	.st250{clip-path:url(#SVGID_2_);fill-rule:evenodd;clip-rule:evenodd;fill:#DA6420;}
	.st251{clip-path:url(#SVGID_2_);fill:#556F43;}
	.st252{clip-path:url(#SVGID_2_);fill:#8BAA7C;}
	.st253{clip-path:url(#SVGID_2_);fill:#D7001D;}
	.st254{clip-path:url(#SVGID_2_);fill:#5B7352;}
	.st255{clip-path:url(#SVGID_2_);fill:#E23B31;}
	.st256{clip-path:url(#SVGID_2_);fill:#AA0E1F;}
	.st257{clip-path:url(#SVGID_2_);fill:#E0C955;}
	.st258{fill:#BEA05B;}
	.st259{fill:#434040;stroke:#000000;stroke-width:0.25;}
</style>
<g>
	<g>
		<g>
			<defs>
				<path id="SVGID_1_" d="M222.4,236.6c-0.5,0-1.4,1.1-1.9,1.1c-1.2,0-1.1-0.9-3.2-0.7c-0.6-0.1-3.1,1.6-4,2.3
					c-1.1,0.9,0.1,0.4-1.8,2.4c-29.3,29.8-28.6,63.6-20.8,73.9c4.7,6.2,13.7,10.8,17.9,11.3c0.5,0.1,0.6-0.1,0.7-0.2
					c0.1-0.1,0.2-0.2,0.6-0.2c1.3,0,0.9-0.5,1.9-0.5c1.1,0,2.3-0.1,3.2-0.2c0.7-0.1,3.2-3,4.5-3.4c0.5-0.2,3.9-2,4.2-2.6
					c0.2-0.5,2.4-0.9,3.5-2.4c0.3-0.3,1.1-0.2,1.4-0.5c0.3-0.2,1-0.1,1.3-0.3c0.2-0.2,0.5-0.6,0.6-0.8c0.3-0.3-0.1-0.4,0.2-0.8
					c0,0,0.2-0.2,0.2-0.2c0.3-0.3,1-0.1,1.3-0.4c0.2-0.2,0.7-0.6,0.9-0.8c0.2-0.2,0.7-0.2,1-0.5c0.3-0.4,0.6-0.2,1-0.6
					c0.2-0.2,0.1-0.7,0.3-1c0.2-0.2-0.6-0.6-0.4-0.8c0.2-0.2,0.4-0.2,0.6-0.4c0.2-0.2,0.4-0.9,0.5-1.2c0.2-0.2,0.6-0.2,0.7-0.4
					c0.2-0.3,0.3-1.1,0.5-1.4c0.2-0.3,0.6-0.4,0.8-0.6c0.3-0.4,0.2-0.9,0.5-1.4c0.2-0.3,0.4-0.3,0.6-0.7c0.3-0.5,0-1.5,0.3-2
					c0.4-0.8,0.9-1.6,1.2-2.4c0-0.5,0.6-1.1-1.1-0.6c-0.9,0.2-0.3,0.6-2.4,0.7c-1.6,0.1-0.9,0.7-3.5,0.7c-0.4,0-0.6,0.5-1.9,0.6
					c-3.6,0.4-7.1,1-11.2,0.2c-0.8-1.2-0.4-3.9-0.2-6.6c0.1-1.4,0.5-3.1,0.6-3.7c0-1.1,0.3-1.6,0.3-2.5c0-1.4,0.4-2.1,0.5-3
					c0.1-2.7,0.7-2.4,0.7-3.6c0-1.4,0.9-1.9,0.9-2.7c0.3-2.9,1.7-4.3,2-6.5c0.3-1.9,1-2.9,1.2-4.2c0.7-3.7,2.3-6,2.3-6.8
					c0-1.5,1.3-0.8,1.4-3c0.1-1.2,1.1-0.8,1.3-2.7c0-0.4,0.4-0.1,0.4-0.5c0.3-2.4-0.2-3.2,0-4.9c0.1-1.1-0.5-0.5-0.4-1
					c0.1-1.7,0.1-3.7-0.1-3.9c-0.8-0.7-0.9-2-1.3-2.3c-0.8-0.5-0.9-2-1.7-2.8c-0.4-0.5,0.5-0.6-0.1-0.8c-0.1,0-1.2-0.2-1.6-0.7
					c-0.3-0.3-1.4-1.4-1.9-1.5c-0.1,0-0.8-1-0.9-1c-0.6,0.1-0.9-0.2-1.2-0.4C222.6,236.9,222.4,236.6,222.4,236.6L222.4,236.6
					 M332.4,239.4c0.1-0.2,2.4-0.5,3-0.7c0.7-0.2,1.8-1.1,1.8-1.2c0.8,0,1.7-0.1,2.5-0.1v0.4c-0.2,0.2-1.9,1.7-1.8,2.3
					c0,0.1-2.2,2-3.3,3.9c0,0-2.1,2.5-3.5,3.8c-0.2,0.2-0.5,1.1-0.8,1.3c-4.3,4.5-11.4,11.9-11.9,11.9c-0.8,0.2-12.2,11.7-12.7,12.2
					c-4.3,3.4-7.3,6.6-8.8,7.7c-4.3,3.1-12.8,9.9-13.1,10.7c-0.3,0.8-1.8,0.1-2.7,0c-1.3-2-0.8-3.4-0.4-5.5
					c1.1-5.5,5.4-11.4,9.9-16.5c12.6-14.2,30.8-24.5,40.2-29.8c0.1,0,0.3,0.1,0.4,0.1C331.9,239.9,332.3,239.8,332.4,239.4
					 M336.7,218.4c-4.5,1.5-9,2.9-13.5,4.4c-21.6,9.8-46.5,26.6-59.8,45c-5.1,7-13.1,21.9-9.2,34.8c2.8,9.4,17.3,15.4,30.9,10.9
					c7.8-2.5,14.5-8.7,20.8-15.3c1.6-1.7,3.6-5,3.7-5.3c6.1-5.3,9.5-10,9.6-10c0.6-1.2,2-2.1,2-2.4c0.1,3.6-0.3,15.2-0.6,15.2
					c-0.5,0-0.5,2.5-0.6,5c-0.2,2,0.4,0.1,0.4,2.9c0.2,8.1,1.7,15.9,3.6,21.1c2,5.3,4.1,6.4,4.7,7.2c1.5,2.3,4.5,4.4,7.4,5.7
					c0.5,0.2,2.9,0.1,3.4,0.2c0.6,0.2,0.4,0.3,0.9,0.5c0.7-0.1,1.9-0.1,2.4-0.2c0.7-0.2,0.1-0.8,0.6-1.1c0.2-0.1,0.7-0.2,0.9-0.3
					c0.3-0.2,0.3-0.5,0.6-0.7c0.3-0.2,0.8-0.2,1.1-0.4c0.3-0.2,0.1-0.5,0.4-0.7c0.2-0.1,0.3-0.1,0.5-0.1c0.1,0,0.3,0,0.4,0
					c0.2-0.1,0.2,0,0.2,0.2c0.1,0.1,0.2,0.3,0.8,0c0.3-0.1,0.7,0.1,0.5-0.6c-0.1-0.4,0.6-0.1,0.8-0.7c0.1-0.4,2.2-0.1,2.2-0.5
					c0-0.2,0.2-0.1,0.4,0c0.1,0.1,0.3,0.1,0.4,0.1c0.3,0,0.6-0.2,0.5-0.7c-0.3-0.3-0.4-0.2-0.5-0.4c-0.2-0.4,0.1-0.6-0.2-0.8
					c-1.1-0.2-2.7-0.6-2.8-0.4c-0.1,0.1-0.1-0.1-0.3-0.3c-0.2-0.2-0.5-0.4-1.1-0.4c-0.2,0-0.4-0.3-0.7-0.5c-0.3-0.3-0.5-0.6-0.8-0.5
					c-0.5,0.1-0.8-0.6-1.1-0.9c-0.2-0.2-0.5-0.8-0.7-1.1c-0.3-0.4-0.2-1.1-0.4-1.5c-0.2-0.3-0.9-0.6-1-0.9c-0.1-0.3-0.1-0.7-0.2-1
					c-0.1-0.3-0.6-0.3-0.7-0.6c-0.2-0.7-0.1-1.4-0.1-2.1c-0.1-0.6,0-1.3-0.2-1.9c-0.2-0.6-0.2-1-0.1-1.6c0.2-0.9-0.4-1.2-0.2-1.7
					c0-0.2-0.1-0.1-0.3-0.1c-0.2,0-0.5,0.1-0.5-0.2c-0.1-0.4-0.4-0.7-0.4-1.1c0-0.2,0.3-0.1,0.5-0.5c0.1-0.4,0.2-1.4,0.3-1.9
					c0.1-0.5,0.1-1.2,0.1-1.5c0-0.5,0.2-0.4,0.4-0.9c0.2-0.4,0.1-1.5,0-2.5c0-0.2-0.5-0.2-0.3-0.7c0.1-0.3,0.3-0.6,0.6-0.9
					c0.4-0.6,0-1,0.7-1.6c0.6-0.5,0.2-4.6,0.4-4.9c0.1-0.2,0.3-0.2,0.5-0.1c0.3,0,0.6,0,0.7-0.4c0.3-2.2,0.2-4.4,0.4-5
					c0.5-1.2,1.1-5.3,1.9-8.3c0.8-2.3,2.5-4.3,3.6-6.5c0.4-0.8-0.2-1.4,0.3-2.6c4.7-11.4,10.9-27.1,11-27.7c0.2-0.9,0.1-2.2-0.2-2.3
					c-0.3-0.1-0.2-2.2-0.2-3.1c0-0.4,0.8-2.4,0.9-3.1c0.3-2.3,0.2-4.2-0.2-6.2c-0.6-2.9-3.6-6.1-4-6.2c-2.8-0.8-2.1-1.3-3.3-1.4
					c-2.1-0.2-6.2-0.4-6.8,0.3c-0.4,0.6-2.4,2.2-4.7,4.4H343c0.8-2.2,2.2-3.8,1.6-6.4c-1.5-2-2.9-4-4.4-6H336.7z M258.7,183.8
					c-2.5-0.1-2.7-0.1-3.4,0.5c-0.3,0.2-1.7,0.2-2.5,0.4c-12.2,4.4-32.4,15.8-37.1,21.7c0.3,0.3,0.6,1.3,0.3,2.3
					c-0.5,1.4,0.1,1.1,0.2,1.9c0.1,0.4-0.1,1.1,0,1.5c0,0.2,0.3,0.2,0.3,0.3c0.1,0.4,0,0.8,0.2,1.3c0.1,0.3,0.2,0.1,0.4,0.4
					c0.3,0.6,0.3,0.7,0.3,1.6c0,0.7,0.3,0.4,0.4,0.8c2.8,0.8,1.8,0.9,4.4,0.8c3.8-0.2,3.9-2.9,14.7-7.8c2.5-1.3,8.5-3.2,9.3-3.4
					c0.7-0.2,1.2-0.2,1.4-0.1c0.5,0.1,4-0.8,6.4-1.5c4.4-2,6.9-2.8,12.5-6.1c1.2-0.7,2.2-0.6,3.5-0.9c-1,0-2.6-0.3-3.3-0.4
					c0-0.4,1-0.8,1.4-1.4c0.2-0.2-0.6-0.6-0.6-0.9c0-0.3,0.5-0.5,0.3-0.8c-0.3-0.5,0.8-0.5,0.8-0.9c0-0.2,0.3-0.4,0.3-0.6
					c0-0.2-0.3-0.1-0.4-0.4c-0.1-0.2-0.3-0.2-0.4-0.5c-0.1-0.3,0.1-0.8,0.1-1c0.1,0,0.3,0,0.5,0c0.2,0,0.4,0,0.5,0
					c0.3-0.1-0.2-0.3,0-0.4c0.3-0.1,1.3-0.1,1.5-0.3c0.3-0.2-0.1-0.4,0.1-0.5c0.1-0.1,0.4-0.1,0.6-0.1c0.3,0,0.5,0,0.7-0.1
					c0.3-0.3-0.5-0.6-0.3-1c0.1-0.2,0.6-0.3,0.8-0.5c0.2-0.2-0.1-0.4,0-0.6c0.1-0.1,0.4-0.2,0.6-0.3c0.2-0.1-0.2-0.3,0-0.4
					c0.2-0.2,0.9,0.2,1.2-0.7c0-0.9,0.2-1.2-0.9-1.1c-0.4-0.3,0.4-0.7-0.3-0.8c-2.4-0.2-4.7-0.2-6.8-0.2
					C263.3,183.6,260.7,183.7,258.7,183.8 M31.9,150.7C31.9,150.7,31.9,150.7,31.9,150.7C31.9,150.7,31.9,150.7,31.9,150.7
					 M160.8,108.6c-0.3,0-1.7,0.4-4.1,1.2c-1.3,0.4-2.5,1.9-3.6,2.1c-2.3,0.4-3.2,1.8-4,2.9c-3.4,4.8-8.4,11.8-13.4,20.7
					c-10.3,18.3-21.9,45.5-31.7,64.6c-2.5,4.8-12.5,27.6-15.3,34.3c-0.5,1.3-2.2,1.6-2.5,2.7c-0.1,0.5-0.4,0.9-0.6,1.4
					c-0.3,0.1-0.5,0.5-0.8,0.6c-0.1-4.4-0.6-8.9-0.7-13.3c-0.2-7.8-0.2-15.5-0.5-23.3c2.6-32.1-1.2-51-30.3-57.5
					c-1.2-0.3-2.7-0.1-4-0.3c-1.4-0.2-2.7-0.9-4.2-1.1c-5.4,0-9.4,1.3-10.2,2.1c-0.5,0.8,0.2,1.4-1,2.6c-1.4,1.2-2.3,3-2.1,2.4
					c-0.6,1.4-1.3,3.4-1.6,4.3c-1.4,1.3-1.6,1.1-2.5,2.4c-0.9,1.3-2.1,1.8-2.6,2.7c-0.3,0.5-0.1,1-0.2,1.2
					c-8.3,11.9-15,51.3-19.3,75c-0.7,15.6-1.3,31.3-2,46.9c-0.3,6.8-0.5,13.5-0.8,20.3c-0.7,3.7-1.6,7.4-1.8,11.5
					c-0.3,4.6,0.3,9.5,0,10.5c-1,2.9-1.1,4.6-1,6.8c0,1.4,6.7,9.2,7.6,9.2c0.3,0,0.4,0.1,0.6,0.1c0.3,0.1,0.6,0.3,1.3-0.1
					c0.3-0.2,0.5,0.2,0.8,0.6c0.3,0.4,0.5,0.8,0.9,0.5c2.3-1.6,5.1-0.6,7.1-1.7c0.4-0.5,0-1.5,0.8-1.8c1.4-0.5,1.9-0.9,2.6-1.6
					c0.6-0.6,0.9-1.3,1.2-1.9c0.8-1.5,0.4-1.7,0.5-3.1c0.1-1.1,1.2-1.4,1.4-2.6c0.2-1.6-0.2-4.2,0.2-5.6c0.2-0.8-0.6-2.3,0.3-2.9
					c0.5-0.4,0.4-0.5,0.6-1.3c0.2-0.9,0.3-2.3,0.7-3.3c0.2-0.6,0.2-1.7,0.3-1.9c0.8-1.2,1.3-1.9,1.5-2.5c0.1-1.1,0.3-1.7,0.3-2.5
					c-0.1-1.7,0.6-1,0.7-2c0.1-0.8-0.3-2-0.2-2.9c1.2-2.7,2.1-5.3,2.9-7.8c0.3-0.9-0.1-2.3,0.2-3.1c1.1-2.7,3.4-7.8,4.4-10.7
					c0.5-1.6,0.3-3.3,0.3-3.5c1.8-6.1,3.7-11.7,5.3-17.8c1.9-5.8,2.6-12.5,2.7-15.2c0.4-5.2,1.1-9.8,1.2-11.1
					c0.8-0.6,1.1-1.2,1.6-5.8c0.2-1.7,2.4-6.6,2.9-7.5c0.3,6.1,0.3,14.3,0.7,18.6c0.7,7.7,3.1,24,11.8,31.1
					c9.9,8.1,23.1,8.7,30.7,5.9c3.1-1.2,5.9-3.9,7.9-6.7c4-5.7,8-10.5,9.6-13.6c1.4-2.7,4.4-10,4.9-13.5c0.1-0.4,1.1-1.3,1.1-1.7
					c0-1,0.2-1.8,0.6-2c0.8-0.4,0.2-1.4,0.8-2.4c1.1-2,2.8-8,3.7-11.3c0.2-0.8,1.4-1.1,1.6-1.8c0.9-3.9,3-8.5,3.8-12.2
					c0.2-1.1,0.5-2.5,0.8-3.5c0.1-0.5,0.5-0.4,0.9-0.4c0.4,0,0.7,0.1,0.9-0.3c0.3-0.9-0.3-3.8,0-4.6c0.2-0.7,0.3-1.5,0.9-1.5
					c2.2,0.1,2.1-0.5,2.6-1.7c0.1-1.7,0.3-3.4,0.4-5.2c0.4-0.9,1.2-0.8,1.5-3.3c0.2-1.8,2.6-0.9,2.6-6.3c1.3-2.7,1.5-1.2,2.8-8.1
					c0.3-0.1,0.8-0.5,1.1-0.7c-0.1,3.6,0.1,5.2,0,8.7c0,0.6-0.3,0.6-0.3,1.5c-0.3,4.9,0.3,2.3,0.3,3.9c0.1,3.4-0.4,2.4-0.5,4
					c-0.1,2.2,0,4.8-0.1,5.9c-0.2,2.1-0.8,0.6-0.9,2.6c-0.5,10.1-0.5,19.8-0.5,31v16.3c0.1,0.9,0.7,0.8,0.7,1.8
					c0.1,1.6,0.1,10.6,0.3,14.6c0.3,6.3,1.3,12.6,1.5,17.7c0.4,8,1.6,16.8,2.3,25.2c-0.2,1.8,1.2,8.4,1.2,9.9c0,0.4,0.3,1.1,0.3,2.2
					c0,2.4,1.1,8.4,1.3,9.1c0.1,0.3,0.8,0.2,0.7,0.8c-0.2,2.7,0.8,4.4,0.8,5.4c0,0.3,0,0.6,0,0.9c0,0.6,0.5-0.6,0.4,2
					c0,0.4-0.4,0.1-0.4,0.5c0,0.7,0.1,2,0.4,2.7c0.3,1.4,1.5,4.8,1.5,6.2c0,0.5,0.1,2,0.4,2.2c0.3,0.2,0.3,2.7,0.5,3.4
					c0.1,0.3,1.7,4.1,1.7,5.8c0,2.1,1.5,4.1,1.9,7.5c0.2,0.3,0.6,0.2,0.8,0.2c0.4-0.7,0.9-1.1,1.5-1.4c0.5-0.3,0.6-0.8,0.6-1.2
					c0-0.6-0.5-0.6-0.5-2.4c0-0.8,0.3-0.5,0.3-0.8c0-0.4,0.5-0.6,0.5-1c0.3-1.2,0-2.5,0.1-3.7c0.1-0.8-0.8-2.3-0.1-4.2
					c0.1-0.4,0.3-0.3,0.4-0.3c0.2,0,0.4,0.1,0.6-0.7c0,0,0,0,0.1,0c0.2,0,1,0,1.2-0.7c0.1-0.2-1.2-0.7-0.9-1
					c0.5-0.5,1.5-1.3,1.6-2.3c0.1-1.3,0.1-2.4,0.1-4.4c0-1.5-0.6-1.8-0.6-2.5c0-0.4-0.5-1.7-0.8-1.9c-0.2-0.2,0-0.8,0.1-1.1
					c0.3-0.8,1-1.1,0.9-2.6c0-0.2,1.1-0.8,1.1-1c0-0.7,0.1-1.3,0.1-1.9c0.1-2.4-0.1-1.7-0.3-2.3c-0.3-0.8-0.5-1.7-0.3-2.9
					c0.1-0.6-0.1-0.9,0.2-1.2c0.4-0.3,0.4-1,0.5-1.4c0-0.6-0.1-0.5-1.8-0.9c-0.4-0.7-0.3-0.9,0.3-1.4c0.9-0.9,2.1-2.8,2-7.2
					c0-0.8,0.5-0.9,0.7-1.5c0.4-2,0.4-7.3,0-7.7c-0.3-0.3-0.8-7.2-0.3-7.7c0.4-0.4,0.6-3.9,0.4-5.6c-0.2-1.3-0.5-1.5,0.1-2.4
					c1.3-1.5-0.1-1.9-0.2-3.4c-0.1-1.4,0.9-2.6,1.2-4.6c0.6-3.2,1.7-7.9,1.6-10c-0.1-1.8-0.2-3.9,0-4.4c0.5-0.9,1.4-1.7,1.5-2.7
					c-0.3-1.7-0.8-0.3-0.7-4.6c0-1.5,1.2-2.4,1.6-5.6c0.6-4.4,0.9-4.6,1.6-6.7c0.2-0.5-0.3-2.1-0.1-2.5c0.4-0.4,0.2-2.3-0.2-2.6
					c-0.5-0.3-0.3-2.3,0-2.4c0.8-0.3,0.9-3.1,0.6-5.3c0.2-0.7,0.8-0.5,1.2-1.6c0.2-0.6,0.2-1.7,0.1-3.3c0-1.3,1.4-1.3,1.3-4.7
					c0-1.6,0.3-3.1,0.2-4.2c-0.1-2,0.4-3.2,0.9-4.5c4-11.6,9.7-32.4,10.6-46.6c0.1-1.1,0.6-1,1-2.1c0.7-2.1,0.1-6.9,0.5-8.6
					c1-5.1,1.4-20-0.6-29c-0.3-1.5-0.9-1.9-1.4-3.8c-0.4-1.6-0.4-2.3-2.1-4.9c-1.3-2-2.5-3.7-3.6-5.1c-1.2-1.5-2.1-3.3-3.5-4.3
					c-2.8-1.9-5.3-4.3-6.8-5c-1.8-0.8-4.5-1-6.3-1C161.8,108.5,161.1,108.6,160.8,108.6"/>
			</defs>
			<clipPath id="SVGID_2_">
				<use xlink:href="#SVGID_1_"  style="overflow:visible;"/>
			</clipPath>
			<path class="st0" d="M148.2,116c2.1-3.6,6.4-5,10.4-6.7c1.4,1.8,4,2.5,4.8,5c-3.9,1.6-5.7,5.4-9.3,7.4
				C151.4,120.5,149.9,118.1,148.2,116"/>
			<path class="st1" d="M173,112.6c1.2,1.2,2.9,1.8,3.9,3.2c-0.4,1.2-1.8,1.4-2.2,2.6c-1.9-1-3.5-2.3-5.4-3.2
				C170.3,114,171.7,113.3,173,112.6"/>
			<path class="st2" d="M163.1,121c-0.2,2.2-0.2,4.5-1.3,5.8c-1.4-2.2-5.4-1.7-6.1-4.5c2.7-2.2,4.5-5.2,8-6.7
				c-0.1,0.7-0.5,1-0.4,1.9C162.8,118.2,163.2,119.9,163.1,121"/>
			<path class="st3" d="M140.2,127.9c0.9,0.7,1.3,2,1.9,3c-0.6,1.5-3.3,1.9-4.8,1.7C138.2,131,139.3,129.6,140.2,127.9"/>
			<path class="st4" d="M187.1,138.3c-0.7,1.8-3.1,6.4-4.5,2.8c-2.7-1.8-5.5-3.5-7.6-5.8c0.3-1.8,1.6-2.6,2.4-3.9
				c2.9,1,5.8,1.9,9.1,2.6c0,0.3,0,0.6,0.2,0.6C186.6,136,187,137,187.1,138.3"/>
			<path class="st5" d="M136.3,134.4c1.8-0.3,2.9-0.8,4.5-0.9c1.2,1.9,2.5,3.7,3.9,5.4c-3.2,2.2-8.3,0-11.9,1.7
				C134,138.6,135.1,136.5,136.3,134.4"/>
			<path class="st6" d="M179.1,143.2c-0.5,0.2-1.2,0.3-1.9,0.2c-0.8-2.7-5.1-4-3.9-7.4c1.6-0.1,2,1.1,2.6,1.9
				c2.3,1.4,4.7,2.8,6.5,4.8v0.4H179.1z"/>
			<path class="st7" d="M132.2,141.7c1.3,0.6,2.2-0.7,3.7-0.6h2.4c0.2,0.2,0.1,0.6,0.4,0.6c1.9,2.4,2.4,6.1,3.9,8.9
				c-0.1,0.7,0.2,1.8-0.2,2.2c-1.5,0.9-3.4,0.4-5.2,0.6c-1,0.1-2.2,0.9-3,0.9c-2.4-0.1-4.7-3.2-6-4.3
				C129.3,147.1,131,144.7,132.2,141.7"/>
			<path class="st8" d="M187.7,150.4c-0.5,0.1,0,1.1-0.4,1.3c-2.6,1.3-3.6-1.6-5-3.2c-1.4-1.6-2.8-2.9-2.6-4.1
				c2.6,0.3,5.1-0.2,7.1-1.1h0.6v0.6c0.1,1.4-0.3,3.3,0.2,4.3V150.4z"/>
			<path class="st9" d="M183.6,152.3c-0.5,1.1-1.3,1.9-2,2.8c-3.3-1.5-6.3-3.4-9.5-5c1.4-2.4,3.1-4.6,6-5.4c0.4,0.6,0.7,1.3,1.1,1.9
				c0.8,1,1.8,2,2.8,2.8v0.2C182.6,150.6,183.3,151.3,183.6,152.3"/>
			<path class="st10" d="M75.3,156.4c-2.3-0.9-6.5-1.8-7.6-4.8c0.5-0.1,0.4-0.8,1.1-0.7C71.3,152.6,73.5,154.3,75.3,156.4"/>
			<path class="st11" d="M77.7,160.5c-3.8,0.5-6.1,2.5-9.1,3.9c-1.6-1.3-1.7-4.1-3.7-5c1.3-1.8,3.6-2.6,5.4-3.9
				c2.8,0.7,4.8,2.3,7.1,3.5c0.1,0.2,0.2,0.4,0.2,0.7C77.5,160,77.5,160.2,77.7,160.5"/>
			<path class="st12" d="M39.2,172.6c-0.3-2.2-2.8-4.6-2.6-6.9c0.1-1.4,1.5-2.5,2.2-3.9c1.1,0.6,2.1,2.7,3.2,4.5
				c1,1.5,2.7,4,2.4,5.2c-0.3,1.5-2.3,1.3-3.7,2.2h-0.6C39.7,173.5,39.6,172.9,39.2,172.6"/>
			<path class="st1" d="M150.3,165.9c0.6-1,1.7-1.4,2.4-2.4c1.5,0.6,2.8,1.6,4.5,2.8c1.7,1.1,4.2,1.8,4.1,4.1
				c-0.1,1.9-2.4,2.5-3.5,3.9c-2.2-1-3.6-2.9-5.8-3.9c-0.6-0.8-1.4-1.5-2.2-2.2h-0.2c-0.1-0.3-0.3-0.5-0.7-0.7
				C149.2,166.9,150,166.6,150.3,165.9"/>
			<path class="st13" d="M184.3,182.2c-2-0.7-2.3-5.8-3.7-8.6c-0.8-1.6-2.2-2-2.4-3.7c2-1.6,5.4-1.8,8.4-2.4v0.9
				C185.1,172.2,184.9,177.4,184.3,182.2"/>
			<path class="st14" d="M141.7,177.2c-0.2-0.7-1.1-0.6-1.3-1.3c1.2-1.8,2.1-4.4,3.5-6.3c2.8-3.9,5-0.3,7.6,1.7
				c1.9,1.5,3.7,2.2,5.2,3.5c-0.8,1-1.8,2-3,3c-0.9,0.8-2.6,2.4-3.7,2.6c-2.5,0.4-6.2-2.6-8-3.2H141.7z"/>
			<path class="st15" d="M84,179.6c0.2,0.7-0.8,0.5-0.9,0.4c-1.3-0.4-2.4-8.1-2.8-10.6h1.9C83,172.6,83.6,176,84,179.6"/>
			<path class="st16" d="M138.2,186.5c-1.2-0.2-1.8-1.1-3-1.3c0.8-2.5,2.9-3.7,2.8-7.1c0.8,0.1,1.6,0.3,2.6,0.2
				C140.9,181.3,139.1,184,138.2,186.5"/>
			<path class="st14" d="M80.1,190.6c-1.4-1.6-1-5.1-1.3-7.8c1.6-0.6,3-1.3,5.2-1.3c0,0.1,0,0.3,0.2,0.2v3.5v5v0.9
				c-0.7,0.1-0.8-0.4-1.5-0.2C82.2,190.3,80.9,190.7,80.1,190.6"/>
			<path class="st13" d="M133.7,195.8c-1.8-0.8-3.9-1.3-6.1-1.7c1.9-2.9,4.2-5.4,6.5-8c1.5,0.4,2.6,1.1,3.9,1.7v0.4
				c-0.1,1.9-1.4,2.6-2.4,3.7C135.4,193.6,135,195.1,133.7,195.8"/>
			<path class="st17" d="M78.6,192.3c1.3-1.2,4-0.4,5.6,0v0.9c-0.5,0.4-0.1,1.6-0.2,2.4c0,2.9-0.5,5.4-0.4,8.4v2.4
				c0,0.4-0.6,0.3-0.4,0.9c-3.1-3.3-4.6-8.1-7.4-11.7c0.1-0.5,0.8-0.4,0.7-1.1C77.2,193.8,77.9,193.1,78.6,192.3"/>
			<path class="st14" d="M179.3,204.4c-2.7-1-3.4-6-3.9-9.9c2.1,0.5,4,1.2,5.8,1.9C180.7,199.1,179.8,201.6,179.3,204.4"/>
			<path class="st18" d="M226.9,197.9c1.4-1.2,3.2-2,4.8-3c0,1.5-0.8,2.2-0.9,3.7C229.1,198.7,228.2,198.1,226.9,197.9"/>
			<path class="st19" d="M128.3,209.8c-2.2-1-3.4-3-5-4.5c0.4-4.2,2.8-6.5,3.9-10.2c2.4,0.5,4.7,1.1,6.7,1.9
				c-0.1,1.9-0.1,3.9-0.9,5.2c-0.6,0.4-1.9,0-2.4,0.4c-1.4,1.1-0.1,4.3-0.7,5.8C130,209.6,127.8,208.3,128.3,209.8"/>
			<path class="st20" d="M178,208.7c-2.1,1.9-4.9,3.2-7.8,4.3c-1.4-2.8-2.1-6.3-3.2-9.3c-0.8-0.7-1.7-1.3-2.2-2.4
				c1.4-2,3.6-3.3,5.4-5c1.9,0.2,2.6-0.8,3.9-1.3c1,4,1.5,8.5,4.3,10.6C179,206.6,177.9,207.6,178,208.7"/>
			<path class="st21" d="M219.9,202.5c1.8-1.2,3.5-2.6,5.4-3.7c1.9,0.1,3.1,0.9,4.8,1.3c-1,2-2.1,4-3.2,5.8
				c-2.8-0.6-4.6-2.1-6.9-3.2V202.5z"/>
			<path class="st1" d="M233.1,211.1c-1.4-0.5-2.8-1.1-4.3-1.5c-0.3-1-0.5-2.2-1.1-3c1.5-1.6,2.1-4.2,3.5-6.1c2.2,1,4,2.3,5.6,3.9
				c-0.8,2.2-1.6,4.3-2.6,6.3C233.7,210.6,233.5,211,233.1,211.1"/>
			<path class="st22" d="M236.1,209.6c0.4-2.1,1.4-3.7,2.2-5.4c0.8,0.2,1-0.3,1.7-0.2h3c1.8,0.5,3.7,0.9,5,1.9
				C243.1,206.2,239.9,208.1,236.1,209.6"/>
			<path class="st23" d="M101.3,205.7c5.2-2.5,9.6-0.4,14.1,1.5c0.4,3.1-0.9,4.6-0.9,7.3c-2.3,1.9-5.5-0.6-8.6-1.3
				c-2.3-0.5-6.2-0.2-7.1-1.5C99.4,209.6,100.5,207.9,101.3,205.7"/>
			<path class="st12" d="M127.9,211.8c-1.8,1-5.4,5.7-7.1,5.8c-1.9,0.1-2.8-2.3-5-2.6c0.9-3.1,0.1-7.7,1.3-9.3
				c3.2-4.4,7.9,4.3,10.8,5.4V211.8z"/>
			<path class="st24" d="M11.1,206.4c0.3,0,0.2-0.6,0.6-0.4c0.4,0.5,1.8,0.1,2.6,0.2c1.4,0.2,2.2,0.8,2.8,1.7
				c-1.1,2.4-1.4,5.7-2.8,7.8c-0.9,0.1-1.5,0.5-2.6,0.4c-0.8,0.3-1.6-0.7-2.2,0c-0.1,0-0.3,0-0.2-0.2
				C10,212.7,10.7,209.7,11.1,206.4"/>
			<path class="st25" d="M35.3,211.3c-1.8,0.3-3,1-4.8,1.3c0-2,1.5-4.3,2.6-6c1.5,0,2.4,0.8,3.7,1.1c0.4,0.6,1.4,0.6,2.2,0.9
				c-0.3,0.4-0.2,1.2-0.4,1.7c-0.3,0.3-1,0.1-1.3,0.4C36.6,210.8,35.7,210.8,35.3,211.3"/>
			<path class="st26" d="M18,209.4c2.2-1.3,3.7,0.5,5.4,1.9c1.1,1,2.5,1.9,2.4,3c-0.1,1.4-3.2,3-4.3,3.9c-1.7,1.4-2.9,2.8-4.5,3.5
				c0.3-2.5-0.1-4.5,0.4-6.9v-2.4v-1.5C17.2,210,17.8,209.9,18,209.4"/>
			<path class="st20" d="M96.5,216.7c0.3-1.5,1.2-2.4,1.5-3.9c3.6,1.6,8.7,1.7,12.3,3.2c-0.5,1.4-2.2,1.7-3,2.8
				c-0.9,0.7-1.7,1.5-2.4,2.4c-1.3,1-2.5,2.2-3.2,3.7c-1.8-0.3-3.5-0.7-5-1.3C98,222.1,97.3,218.2,96.5,216.7"/>
			<path class="st27" d="M126.3,214.6c0.3-0.1,0.5-0.3,0.6-0.6c0.5,1.5-1,3-1.1,4.8c-0.9-0.4-1.9-0.7-2.8-1.1
				C123.9,216.3,125.4,215.7,126.3,214.6"/>
			<path class="st28" d="M93.3,223.9c0.7-2.1,1.8-3.7,2.4-5.8c1.1,1.9,0.5,4.5-0.2,6.3c-0.9,0.1-1.4-0.2-2.2-0.2V223.9z"/>
			<path class="st29" d="M83.8,211.8v-0.6c-0.2,0-0.2-0.3-0.2-0.4c-2.9-0.5-6.5-1.5-9.5-1.3c-0.9,2.6-2.3,6.2-1.3,9.3
				c1.1,0.1,1.6-0.4,2.6-0.4c0.7,0.4,2.8,0.4,3.5,0c1.4-0.2,2.9-0.3,4.5-0.2c0.2-1.1,0.4-2.3,0.4-3.7H84
				C83.8,213.6,84.3,212.2,83.8,211.8"/>
			<path class="st14" d="M326.1,221.7c3.4-0.9,6.5-2,9.7-3c-0.1,0.8,0.2,1.9-0.2,2.4c-1,0.1-1.8,0.5-2.6,0.9c-1.6,0.7-3.4,1.3-5,2.2
				c-1-0.4-1.2-1.5-2.2-1.9C325.9,221.9,326,221.9,326.1,221.7"/>
			<path class="st30" d="M120.5,231.9c-2.6-0.9-5.5-1.4-7.8-2.6c0.6-1.2,1.5-3.2,2.8-4.5c0.4-0.4,0.7,0,1.3-0.4
				c0.8-0.6,1.2-1.9,1.9-2.6c2.4-2.2,4.3-3.2,6.5-1.5C124.1,224.6,121.8,227.7,120.5,231.9"/>
			<path class="st14" d="M140.2,222.8v-3.7c1.6,2.7,3.3,5.2,4.3,8.4c-0.9,1.1-2.4,1.7-2.8,3.2c-0.6,0-0.7-0.6-1.3-0.6
				c0-0.1,0-0.3-0.2-0.2v-3V222.8z"/>
			<path class="st31" d="M8.1,222.4c1.6,0,2.2,2.8,3.9,3.5c-0.9,1.9-3.8,1.7-4.8,3.5c-0.2,0-0.2-0.2-0.2-0.4
				C7.4,226.7,7.9,224.7,8.1,222.4"/>
			<path class="st32" d="M317,225.6c2.5-1,4.7-2.4,7.3-3.2c1.4,0.5,1.7,2.2,3.2,2.6c-0.5,2.4-2.5,3.2-3.5,5.2c-2,0-3,1.1-4.3,1.7
				C318.1,230.6,316.8,228,317,225.6"/>
			<path class="st33" d="M333.6,239c-3.3-0.3-4.8-4.9-6.7-6.9c-0.3-0.3-1.7-1.3-1.7-1.5c-0.1-1.2,3.3-3.1,3.5-4.3
				c3,1.5,5.4,3.5,8,5.4c-0.2,3.1-1.7,4.9-2.6,7.3H333.6z"/>
			<path class="st34" d="M345.1,229.1c1.5,0,2.5-0.5,3.9-0.6c1.5,1.4,2.9,2.8,3,5.6c-2,0.2-3.3-0.3-5.2-0.2c-1.6,0.1-3.7-0.3-5,0.2
				c-1.6,0.3-3.3,0.3-4.3-0.4c0-0.6,0.1-1.1,0.4-1.3c1.2-1.2,3.9-0.9,5.4-1.7C344.1,230.3,344.7,229.7,345.1,229.1"/>
			<path class="st35" d="M323.3,244.2c-3.7-1.3-5.4-4.5-8.4-6.5c1.4-1.7,3-3.8,4.8-5c1-0.7,3.3-1.6,4.3-1.5c2.5,0.3,3.4,4.5,5.6,6.9
				c0.6,0.7,1.9,0.9,2.2,1.7C328.3,240.7,326.2,242.8,323.3,244.2"/>
			<path class="st36" d="M29.5,237.1c1.4,0.8-2.1,3.8-3,5c-1.5,1.8-2.6,3.4-3.7,4.3c-2.5-1.7-5.4-3-6.9-5.6c2.6-2.8,5.9-4.9,9.1-7.1
				c1.6,0.8,2.7,2.2,4.1,3.2C29.3,236.8,29.3,237,29.5,237.1"/>
			<path class="st34" d="M353.5,236.8c0.3-0.5-0.6-0.9,0-1.1c2.1-1.4,6.1-0.9,8.4-2.2c0,0.2,0,0.4,0.2,0.4c0.9,3-0.4,5.5-0.9,8.2
				c-0.4,2.7,1.1,5.3-0.2,7.6c-2.9-0.7-5.5-1.7-8.4-2.4c0.3-2,0.8-3.8,0.9-6.1C353.9,240.4,353.9,237.9,353.5,236.8"/>
			<path class="st37" d="M51.1,239.4v-1.3c2.9,0.8,6.1-0.2,8.9,0.6c0.2,1.2,1.5,1.4,1.9,2.4c-1.7,3.2-5.2,4.6-6.9,7.8
				c-1.3-0.5-1.8-1.6-3-2.2c0-0.2,0-0.4-0.2-0.4C51.7,243.9,51.2,241.8,51.1,239.4"/>
			<path class="st38" d="M231.6,248.5c-1.9,0.7-4.3,0.9-6.5,1.3c0.2-2-0.7-3.8-0.9-6.1c1.6-0.5,2.5-1.8,4.1-2.4
				C229.2,244,231.4,245.3,231.6,248.5"/>
			<path class="st39" d="M44,253.9c-0.3,0.1-0.3,0.5-0.4,0.6c-0.2-3-2-5.8-2.6-9.1c1.4-0.5,2.6-1.3,4.1-1.7
				C44.7,247.1,44.4,250.6,44,253.9"/>
			<path class="st40" d="M333.4,245.5c1.5-0.1,1.5,3.1,3,3.7c-0.8,1.5,0.1,2.4,0.4,3.9c-2.6,0.2-4.1,1.5-5.8,2.6
				c-1-1.2-0.9-3.5-2.2-4.5c0.1-0.3,0.4-0.3,0.4-0.7C330.7,248.8,332.1,247.2,333.4,245.5"/>
			<path class="st39" d="M52.4,249.8v-0.6c0.5,0.3,1.3,0.3,1.7,0.6c-0.1,1.7,1,2.1,1.7,2.8c-0.5,0.7-2,0.9-2.8,0.6
				C53,252,52.6,251,52.4,249.8"/>
			<path class="st41" d="M358.1,257.6c-0.7-0.5-0.9-1.5-1.5-2.2c0.3-1.4,2-1.5,2.8-2.4c0.2,0,0.3,0.2,0.2,0.4
				C359.1,254.9,358.4,256,358.1,257.6"/>
			<path class="st28" d="M53.5,254.8c0.9-0.6,2.3-0.7,3.2-1.3c1.4,2.1-0.4,5.7-1.3,7.6C54.9,258.9,54.1,256.9,53.5,254.8"/>
			<path class="st42" d="M140.8,254.4c2,0.8,3.5,2.1,5.6,2.8c-2.3,2.2-2.1,6.8-5.4,8c-0.1-3.2,0.3-7.1-0.2-9.9V254.4z"/>
			<path class="st1" d="M192.9,268c1.8-3.9,4-7.4,6.1-11c0.2,0,0.2,0.2,0.4,0.2c2.2,3.2,4.3,6.4,6.1,9.9c-1.9,1.8-4,3.4-6.1,5.2
				c-1.8-1.7-3.7-3.4-6.5-4.1V268z"/>
			<path class="st43" d="M166.1,271.9c-1.4-2.2-4.4-2.8-6.1-4.8c1.8-3.7,4.4-6.7,6.7-9.9c0.8,0.3,1.6,0.6,2,1.3v0.4
				c-1.1,1.7-1.7,5.9-0.4,8c-0.2,1.4-1.3,1.9-1.5,3.2C166.1,270.3,167,272.7,166.1,271.9"/>
			<path class="st44" d="M311.4,267.7c2.6-1.9,4.5-4.6,7.1-6.5h1.1c0.4,3.7,2.9,5.3,3.2,9.1c-2.7-0.2-6.4,0.4-8.6,1.5
				C312.6,270.9,309,269.4,311.4,267.7"/>
			<path class="st45" d="M149,267.3c-0.3-1.8-0.4-4,1.1-4.5c3.6,1.8,5.9,4.9,10.2,6.1c-0.8,2.8-4.2,4.8-8.4,4.8h-2.4
				c-0.2-0.2-0.2-0.5-0.2-0.9c-0.1-0.7,0.3-1.9-0.2-2.2v-0.2V267.3z"/>
			<path class="st46" d="M4.4,266.9c0.2-0.5-0.4-1.7,0.4-1.5c0.9,0.8,2.2,1.2,3.2,1.9c-0.2,1.7,0.1,3,0.4,4.3
				c-0.1,0.5-0.8,0.4-0.7,1.1c0,2.7-2,3.5-3.7,4.5c-0.5-0.6-0.1-2.1-0.2-3c0.5-0.3,0.1-1.5,0.2-2.2v-3
				C4.7,268.7,4.3,267.5,4.4,266.9"/>
			<path class="st25" d="M59.1,267.7c2.3-1.1,6.2-2.3,8.4-0.9c0,2.2,0.1,4.4-0.4,6.1c-1.6,0.1-2.5-0.5-3.9-0.6
				C61.7,271,60.3,269.5,59.1,267.7"/>
			<path class="st47" d="M96.3,276c-2.1-0.4-4.8-0.4-6-1.7c0.3-1.9-0.7-3.8,0.2-5c0.5-0.1,0.8,0,1.1,0.2h2.4
				c1.6,0.2,2.9,0.7,4.5,0.9c0.4,1.6,0.4,2.8,0.2,4.5c-0.3,0.1-0.5,0.3-0.6,0.7C97.6,275.8,97.1,276.1,96.3,276"/>
			<path class="st32" d="M223.4,279.9c-3.3-1.1-7.3-1.6-9.3-4.1c2.7-1.9,5.5-4.9,8.4-5.8c1.3,1,1.5,3,2.6,4.1
				C224.8,276.3,223.5,277.4,223.4,279.9"/>
			<path class="st48" d="M165.2,283.7c-2.3-3.4-4.8-6.5-6.1-11c0.7-0.9,1.5-1.7,2.4-2.4c2.3,0.4,3.6,1.9,4.8,3.5
				c0.1,0.5,0.5,0.6,0.4,1.3C166.4,278.1,165.7,280.8,165.2,283.7"/>
			<path class="st49" d="M36.8,279.6c-0.8-1.1-0.3-3.6-1.3-4.5c0.3-0.9,1-1.3,1.5-1.9c0.6,0.1,1.2,0.1,1.5,0.4
				C38.1,275.7,37.3,277.5,36.8,279.6"/>
			<path class="st32" d="M280,279.6c-2,1-3.1,2.8-4.8,4.1c-1.3-2.7-2.2-5.6-2.4-8.9c3.2-0.7,7.1-0.7,10.4-1.3
				c0.3,0.7,0.3,1.7,0.4,2.6v2.2v0.6v0.2c-0.2,0.1-0.3,0.2-0.6,0.2C282.1,279.6,280.6,279.1,280,279.6"/>
			<path class="st44" d="M154.2,274.4c1.1,0.2,1.4-0.3,2.2-0.4c-0.2,0.9-1.4,2.6-1.5,4.3c-1.4,0.9-3.1,1.5-4.3,2.6
				c0.5,1.5-1.3,2.3-2.4,2.8c-1-0.3-1.1-1.5-1.5-2.4c1-0.3,2.4-0.4,3-1.1v-1.7c0.4-0.3,0.4-2.1,0-2.4c0.1-0.4-0.3-1.4,0.2-1.5
				C151.3,274.5,153.2,275,154.2,274.4"/>
			<path class="st50" d="M153.4,285.5c-0.2-1.4-1-2.3-1.3-3.7c0.8-1.7,3.1-1.8,4.1-3.2c0.1-1.9,0.6-3.3,1.9-3.9
				c2.5,3.3,4,7.5,6.7,10.6c0,0.4-0.3,0.5-0.2,0.9c-3.1,1.9-5.4,4.5-9.3,5.6c-0.3-1.7-0.7-3.2-1.3-4.5
				C153.9,286.5,153.8,285.8,153.4,285.5"/>
			<path class="st51" d="M82.7,279.6c-0.4-0.5-1.7-0.1-2.4-0.2c-0.1-1.6,0.7-2.5,0.4-4.3h0.9H85h2.2c0.4,1-0.4,2.5-0.2,4.1
				c-0.1,0.4-1,0-1.1,0.4H82.7z"/>
			<path class="st52" d="M188.8,278.8c2-0.4,3.2-1.5,5-2.2c-0.2,2.6,1.4,4.7,0.4,6.7c-1.7,0.2-4.9,0.1-6.5-0.4
				C188.1,281.5,188.6,280.3,188.8,278.8"/>
			<path class="st53" d="M298.4,279.9c0.6-0.1,0.5-0.9,1.3-0.9c1.1,2.2,3.7,3,5.6,4.3c-0.2,3.4-1.9,5.3-4.1,6.7
				c-2.6-1.2-5.2-2.5-7.6-3.9c-0.9,0.4-2,0.7-2.6-0.2v-0.4C293.6,283.7,296.1,281.9,298.4,279.9"/>
			<path class="st54" d="M142.3,281.6c0.7-0.5,2.2-0.1,3.2-0.2c-0.5,1.4,1.5,2.5,1.5,3c-0.1,1.3-2.9,2.1-4.3,3
				c-0.1-0.7,0.3-1.9-0.2-2.2C142.6,284,142.6,282.6,142.3,281.6"/>
			<path class="st55" d="M187.3,284.8c0.2-0.5,1-0.5,1.7-0.4h2.2c2.6,0.2,4.4,1.2,6,2.4c-3.5,2.2-4.7,6.6-7.1,9.9
				c-1.3-1.2-2.4-2.6-3.9-3.7C186.4,290.1,187,287.6,187.3,284.8"/>
			<path class="st56" d="M163.9,292.4c-0.2,0-0.2,0.2-0.2,0.4c-0.8-0.8-1.1-2.1-1.7-3c0.4-0.8,1.1-1.3,1.9-1.7
				C163.9,289.8,165.3,291.1,163.9,292.4"/>
			<path class="st25" d="M153.8,290.2c-1.4-1.7-1.7-4.5-2.4-6.9c-3.1,1.3-4.8,4.1-8.2,5.2c-0.6,1.5,0.2,3.2,0,5
				c2.4,0.6,4.2,1.7,6.5,2.4c1.2-1.2,3.1-1.6,4.1-3C154.2,292.5,154.2,290.6,153.8,290.2"/>
			<path class="st57" d="M163.3,303c-1.3,0.5-2.7,1-4.3,1.3c-1.8-3.5-5.7-4.8-8.9-6.9c2.8-3.2,7.2-4.8,10.8-7.1
				c0.8,2,2.1,3.6,3.2,5.2C164.2,298.2,163.6,300.4,163.3,303"/>
			<path class="st58" d="M143.4,295.4v-0.6c1.8,0.4,3,1.4,5,1.7c1.5,4.1,7.4,3.7,8.9,7.8c-3.7,1-6.8,2.6-9.3,4.7
				c-1-1.7-2.2-3.3-3.7-4.5C144.2,301.3,143.7,298.4,143.4,295.4"/>
			<path class="st59" d="M186,295c0.7-0.2,1.9,0.8,2.2,1.7c-0.9,0.3-1.2,1.3-2.2,1.5V295z"/>
			<path class="st60" d="M257.8,302.1v-2.8h3c0.8,0.5,2.5,0.1,3.7,0.2h0.4c0,0.2,0.3,0.2,0.4,0.2c0.1,0.5-0.3,1.6,0.2,1.7v0.2v2.4
				v1.9c-3.1-0.1-4.7-1.6-7.6-1.9C257.8,303.5,257.7,302.9,257.8,302.1"/>
			<path class="st61" d="M288.5,309v1.5c-3.2-0.3-5.6-1.5-8.4-2.2c1.8-3.2,5.1-4.9,6.5-8.4c1,0.2,2.1,0.4,2.8,0.9
				c0.3,2.1-0.6,3.1-0.6,5C288.2,306.4,288.6,308,288.5,309"/>
			<path class="st62" d="M231.2,302.1c1.8-0.2,3.4-0.7,5-1.1c0.1,1.6-0.8,2-0.6,3.7c-1.9-0.3-2.8-1.7-4.3-2.4V302.1z"/>
			<path class="st63" d="M28.6,307.3c0.2,0,0.4,0.1,0.4,0.2c-0.9,2.4-0.6,5.9-2.4,7.3c-0.7-0.7-1.2-1.6-1.7-2.4
				C26,310.6,26.5,308.2,28.6,307.3"/>
			<path class="st64" d="M164.2,312.5c0.4-0.5,0.4-2.5,0-3c-0.1-1.9-0.7-3.2-0.6-5.2c-2.1,0.6-4.1,1.3-6.5,1.5
				c2.9,2.6,4.3,6.7,6.9,9.5C163.9,314.2,164.3,313.7,164.2,312.5"/>
			<path class="st65" d="M284.4,313.6c0-1,0.3-1.7,0.4-2.6c1.1,0.2,2.1,0.6,3.2,0.9c0,0.2-0.2,0.3-0.2,0.4
				C286.6,312.7,285.5,313.2,284.4,313.6"/>
			<path class="st66" d="M145.6,316c1.3-1.4,2.2-3.1,3.7-4.3c1.6,2.9,1.8,7.3,4.8,8.9c-2.1,2.6-5.4,3.9-6.7,7.3
				c-0.3,0-0.2-0.4-0.4-0.4C146.6,323.5,146.2,319.6,145.6,316"/>
			<path class="st44" d="M203.7,313.6c-0.5-0.4-2.5-0.4-3,0c-0.9,2.9-2.5,5.1-2.8,8.7c0.2,0.1,0.4,0.2,0.4,0.4
				c2.1,1.2,4,2.5,6.5,3.2h0.2c0.5-3.6,2.3-5.9,3.2-9.1C206.8,315.7,205.1,314.8,203.7,313.6"/>
			<path class="st67" d="M162.7,327c-1,0.4-2.2,0.7-3.7,0.7c-0.5-2.9-2.4-4.5-3.2-7.1c2.4-0.9,5-1.5,7.4-2.4v0.7
				c0,2.9-1.4,4.3-2.4,6.3c-0.1,1.3,2,0.3,1.9,1.5V327z"/>
			<path class="st68" d="M147.3,329.6c1.8-3.3,4.5-5.6,7.3-7.8c1.4,1.8,2.7,3.8,3.2,6.5c-3.8,0.6-6.4,3.5-9.5,4.1
				C147.6,331.9,147.6,330.6,147.3,329.6"/>
			<path class="st69" d="M162.7,335.2c-2.2-1.6-4.4-3.2-6.3-5.2c1.7-0.3,4.1-2,5.6-1.1C161.7,331.5,163,332.5,162.7,335.2"/>
			<path class="st70" d="M338.8,337.8c-0.1-0.2-0.2-0.3-0.4-0.2c3.4-2.2,6.5-4.6,8.9-7.8h0.4c1.3,0.7,2.7,1.2,4.5,1.3
				c-0.2,1,0.8,0.8,0.7,1.7c-1.5,0.1-4.1,0.2-4.5,2c-0.8,0.2-1-0.3-1.7-0.2c-1.2,1.2-3.3,1.6-3.9,3.5
				C341.2,338.3,340.1,338.2,338.8,337.8"/>
			<path class="st20" d="M329.5,333c0.7-1.1,1.4-2.2,2.6-2.8c1,1.9,2.3,4.8,2.6,6.7C332.7,335.9,330.9,334.6,329.5,333"/>
			<path class="st71" d="M149.7,343.8c2.4-3.5,3.8-9,4.8-13.2c2.9,1.6,5,3.9,7.8,5.6v0.2c-0.8,1.3-2.3,3.5-1.5,5v0.2
				c-3.5,1.3-7.5,2.1-10.4,4.1c-0.3,0-0.1-0.6-0.4-0.6C150.1,344.5,149.5,344.5,149.7,343.8"/>
			<path class="st72" d="M148.6,334.3c1-1.3,2.9-1.7,4.3-2.6c-1.2,3.4-1.4,7.8-3.7,10.2C150.3,339.5,148.7,336.9,148.6,334.3"/>
			<path class="st73" d="M5.1,336.5c0.5,0,1,0,1.3-0.2h2.4c0.3,0,0.3,0.3,0.6,0.2c0,0.2,0.2,0.3,0.2,0.4c-0.5,0.4-0.1,1.7-0.2,2.4
				c-0.1,0.8-0.2,1.7-0.4,2.4c-3.1-0.4-4-3-5.8-4.8C3.3,336.3,4.9,337.1,5.1,336.5"/>
			<path class="st74" d="M161.1,351c-2.8-0.2-3.4-4.5-5.6-6.1c1.3-1.2,3.8-1.2,5.4-2.2c0.3,0,0.2,0.4,0.4,0.4
				C161.9,345.2,162.2,349.3,161.1,351"/>
			<path class="st75" d="M150.6,347.1c0.7-1,2.1-1.2,3.2-1.7c3,1.9,4.1,5.8,7.1,7.8v0.2c-2.6,0.2-2.7,3.3-1.9,5.6
				c-1.6,1.5-3.4,2.8-5,4.3C153,357.8,151.3,352.9,150.6,347.1"/>
			<path class="st13" d="M154.4,364.6c1.4-1.4,2.6-3,4.5-3.9v1.1c0.1,1.1-0.9,1.2-1.1,2.4c-0.1,1,0.6,2,0.4,2.8
				c-0.3,1.2-1.8,1.9-2.6,2.2C155.4,367.5,155.1,365.9,154.4,364.6"/>
			<path class="st76" d="M169.4,256.5c-2.2,0.4-6.2-2.7-7.6-4.5c2.9-2.3,5.2-5.2,6.9-8.6c0.6,0,0.7,0.6,1.3,0.6
				C172.2,248,169.6,252,169.4,256.5"/>
			<path class="st77" d="M144.7,306.2c0.6,1.2,1.6,2,2.2,3.2v0.2c0.4,0.3,0.7,0.6,1.1,0.9c0,0.7-0.5,0.8-0.6,1.3
				c-0.4,1.2-1.2,1.9-2.2,2.6C145.1,311.8,144.4,308.5,144.7,306.2"/>
			<path class="st78" d="M140.2,245.3c0.9,0.6,1.8,1.2,2.4,2.2c-0.7,0.9-1.6,1.7-2.4,2.6V245.3z"/>
			<path class="st79" d="M144.5,229.1c2-0.4,2.9,2,4.5,2.6c-0.8,0.8-2.1,1.1-3,1.7c-1.2-0.4-1.9-1.1-3-1.5c0-0.2-0.2-0.3-0.4-0.4
				C142.9,230.3,144,230,144.5,229.1"/>
			<path class="st80" d="M8.8,272.1c4.3-1.5,8.6-2.9,12.7-4.5c1.6,4.2,3.4,8.1,4.8,12.5c-1.7,1.4-3.7,2.5-6.5,2.8
				c-3.5-3.3-7.5-6.2-10.8-9.7C9.1,272.6,8.6,272.7,8.8,272.1"/>
			<path class="st81" d="M13.7,254.4c-3.1,1.4-5.9,3.2-9.1,4.5v1.9c-0.5,0.5-0.1,1.9-0.2,2.8c0.4,0.1,0.4,0.6,0.9,0.6
				c1,1.1,2.4,1.8,3.9,2.4c3.7-2.4,7.3-4.8,9.7-8.4C17.4,256.7,15.8,255.3,13.7,254.4"/>
			<path class="st25" d="M43.8,152.8c-0.6-3-0.9-6.3-1.9-8.9H41c-2.2,0.3-4.3,0.9-6.1,1.7c0,1.8-1,2.8-1.9,3.7v0.4
				c-0.3,0.7-0.3,1.7,0.2,2.2c0.3,1,0.2,2.4,0.2,3.7C36.9,154.6,40.4,153.8,43.8,152.8"/>
			<path class="st13" d="M98.9,246.6c0.2-2.7,2.1-5.7,1.9-8.6c-0.6-0.3-1.7-0.2-2.4-0.4c-0.7-0.4-2.9-0.4-3.7,0
				c-0.9,0-1.5,0.4-2.6,0.2c-1.6-0.6-4.6,0.2-6.3-0.4v0.4c0,0.3-0.1,0.5-0.2,0.6c-0.3,2.6-0.3,6.4-0.9,8c4.1,1.8,8.9,3.1,13.6,4.3
				C99.9,249.7,98.8,248,98.9,246.6"/>
			<path class="st20" d="M104.9,221.3c0.7-0.9,1.5-1.7,2.4-2.4C106.6,219.8,105.8,220.6,104.9,221.3"/>
			<path class="st19" d="M107.5,193c-1.8,3.9-3.8,7.5-5.6,11.5c2.1-0.3,2.5-2.3,4.1-3c0.7,0,1.8-0.4,2-1.5c0.4-0.7,1.1-1,1.5-1.7
				c0.4-1.5,1.9-1.9,2.4-3.2C109.6,195,109.2,193.4,107.5,193"/>
			<path class="st20" d="M123.1,169.4c-1.1-0.2-0.8,0.9-1.7,0.9c-0.8,0.6-1.5,1.4-2.2,2.2c-0.7,0.9-1.7,1.5-2.8,1.9
				c0,0.3-0.3,0.3-0.2,0.6c1.2,4.9,6.8-1.1,10.8,0.6C125.9,173.4,124.3,171.5,123.1,169.4"/>
			<path class="st76" d="M147.1,117.5c1.6,0.6,3.5,2.9,4.8,4.5c1.8,0.5,3.1,1.5,3.9,3c-2.1,3.1-5.6,4.8-8,7.6
				c-3.7-0.5-5.3-3.1-6.7-5.8C142.8,123.5,145.1,120.7,147.1,117.5"/>
			<path class="st82" d="M166.1,149.7c1.7,0,2.5,1,3,2.2c-1.1,2.1-2.8,3.5-4.1,5.4c-3-1.6-5.5-3.8-8.2-5.6c1-1.9,2.3-3.5,3.5-5.2
				c0.9,0.1,1.4,0.8,2.2,1.1C163.4,148.6,164.7,149.2,166.1,149.7"/>
			<path class="st83" d="M31.7,150.8c0.8,0.1,0.7,4,0.6,5c-0.8-0.6-2.8,0.2-2.4-0.6C30.8,154,31,152.2,31.7,150.8"/>
			<path class="st84" d="M127.4,151.2c-1.6,3.6-3.5,6.9-5,10.6c-0.1,0-0.3,0-0.2,0.2c1.1,0.8,1.9,2,3,2.8c2.9-2.7,4.2-7,6.9-9.9
				C130.7,153.6,128.9,152.6,127.4,151.2"/>
			<path class="st85" d="M187.5,153.8v2.4c-1,0.1-3.8,0.2-4.8-0.4c0.6-0.8,1.2-1.7,1.7-2.6c1,0.5,1.8-0.5,3-0.4V153.8z"/>
			<path class="st86" d="M25,160.5c0.4,1.2-0.6,2.7-0.6,4.1H23C23.5,163.1,24.8,162.4,25,160.5"/>
			<path class="st87" d="M121.2,164.2c-1.1,2.8-2.5,5.3-3.7,8c0.5-0.1,0.7-0.5,1.1-0.6c1.1-0.4,1.6-1.4,2.4-2.2c1.1-1,2.1-2.2,3.5-3
				C123.6,165.6,122,163.6,121.2,164.2"/>
			<path class="st83" d="M19.8,172.2c3-0.3-1.4,6-1.9,6.3C18.4,176.3,19.1,174.3,19.8,172.2"/>
			<path class="st88" d="M114.5,179.1c-0.6-0.5,0.5-1,0.4-1.7C116.6,177.7,115.6,178.9,114.5,179.1"/>
			<path class="st89" d="M109.3,189.5c1.4-2.9,2.9-5.8,4.1-8.9C116.4,185.1,111.7,187.4,109.3,189.5"/>
			<path class="st76" d="M268.1,193.4c-0.8,0.4-0.7,1.7-0.2,2.4c-0.4,0.4-1,0.6-1.3,1.1c0.5,0.4,1.4,0.5,2.4,0.4
				c-3.6,1.2-6.3,3.3-9.7,4.8c-1.8-0.8-2.7-2.6-3.9-4.1c2.5-3.9,6.7-6.1,9.7-9.5C266.1,190.1,267.3,191.6,268.1,193.4"/>
			<path class="st76" d="M256.7,193.6c-0.7,1.6-1.6,3-2.6,4.3c-2.5-1.1-3.4-4-5.2-5.8c0.9-1.3,2.7-1.7,3.5-3
				C254.5,189.9,255.4,192,256.7,193.6"/>
			<path class="st90" d="M16.7,201.8V199c-0.1-0.7,0.3-1.9-0.2-2.2c0-0.8-0.8-0.7-1.1-1.1c-0.8-0.2-1.6-1.7-1.9-0.4
				c0,0.4-0.1,0.7-0.2,0.9c-0.5,3-1.3,5.7-1.7,8.9c1.8-0.1,3.9,0.2,5.4-0.2v-0.4C16.8,203.6,17.2,202.3,16.7,201.8"/>
			<path class="st91" d="M216.5,210c-0.3,0.3-0.3,0.1-0.6,0c-0.3-3.6,0.9-5.2,3-6.7c2.9,0.9,2.3,1.9,0.6,3.7
				C218.4,208.2,216.6,209.1,216.5,210"/>
			<path class="st92" d="M216,211.5c2.5-1.5,3.9-4.1,6.3-5.8c2.6,0.7,5.2,1,5.2,3.5c0,2.6-3.6,5.3-3.9,7.8c-2.1,0.5-4.6,0.1-6.1-0.6
				C217.3,214.5,216.5,213.2,216,211.5"/>
			<path class="st20" d="M175.6,216.3c-1.4-0.7-2.7-1.5-3.9-2.4c-0.2,0.2-0.5,0.2-0.9,0.2c-0.2,0.7,0.4,0.6,0.2,1.3
				c0,0.4,0.3,0.5,0.2,0.9c0.2-0.1-1.5,2.2-1.5,2.2c-0.6,1.7-2.9,2.9-2.6,4.8c0.3,1.6,3.9,2.1,5.2,2.8c1.6,0.8,1,0.4,1.5-1.3
				C173.5,221,174.8,218.8,175.6,216.3"/>
			<path class="st93" d="M346.8,227.5c0.7-0.8,1.3-1.7,2.8-1.7C350.7,226.8,348.2,227.7,346.8,227.5"/>
			<path class="st94" d="M47.9,229.3c-0.7,0.6-2,0.6-2.8,1.1c-0.8-2.2-1.5-4.5-2.2-6.9c1.5-1.3,3.2-2.4,5-3.5
				c0.5,1.3,1.8,1.8,2.2,3.2C49.4,225.4,48.2,226.9,47.9,229.3"/>
			<path class="st95" d="M306.6,231.2c3-1.5,5.8-3.3,8.9-4.8c0.8,2.1,1.8,4.1,2.8,6.1c-1.5,1.6-3.9,2.5-4.1,5.4
				c-0.7,0.4-1.7,0.5-2.4,0.9C309.2,237.2,307.6,234.5,306.6,231.2"/>
			<path class="st96" d="M170.4,242.5c-1.8-0.2-3-1-4.1-1.9c2.2-4.5,4.9-8.3,7.3-12.5c-1.3,2.6-0.8,7-2.6,9.1
				C171,239,171.4,241.4,170.4,242.5"/>
			<path class="st97" d="M335.6,238.6c0.4-1.4,1.2-2.4,1.7-3.7c1,0.2,1.7,0.6,3,0.4c0.4,1.6,0.8,3.2,1.1,5c-0.4,1.1-0.4,3.7,0,4.8
				v2.2c-1.6,0.2-3.2,0.4-4.3,1.1c-1-1.3-1.8-2.7-2.4-4.3c1.7-2.1,3.4-4.2,5.2-6.3C338.3,237,336.4,237.8,335.6,238.6"/>
			<path class="st98" d="M232,255.6c-2.4-0.5-4.9-0.7-6.7-1.7c0.1-1.3-0.2-1.9,0-2.8c2.1-0.4,4-1,6.3-1.3
				C232.1,251.5,231.8,253.3,232,255.6"/>
			<path class="st1" d="M212.6,240.3c0.9-1.5,2.5-2.4,4.3-3c-0.5,2-1,4.1-2.8,4.8C213.5,241.5,212.8,241.2,212.6,240.3"/>
			<path class="st99" d="M313.1,250.7c-1.7-2.5-3.3-5.1-5.4-7.1c2.7-1.5,4.2-4.8,6.9-4.5c1.7,0.2,2.9,3.1,5,4.5
				c0.7,0.5,2.2,0.7,2.4,1.5C318.9,246.8,316,248.7,313.1,250.7"/>
			<path class="st91" d="M223.4,249.6c-1.4,1.1-3.6,1.4-5.4,2.2c-0.5-1.6-1.8-2.4-1.7-4.5c2.2-1,4.3-2,6.9-2.6c0,1,0.4,1.6,0.6,2.4
				C223.8,248,224,249.2,223.4,249.6"/>
			<path class="st98" d="M140.4,251.3c2.2-2.8,5.2-4.7,8.9-6.1c1.7,1.6,3,3.7,5,5c-0.6,3.3-2,5.8-3,8.6c-3.5-2.2-7.2-4-10.6-6.3
				c0.1-0.3-0.2-0.4-0.2-0.6V251.3z"/>
			<path class="st100" d="M307.5,271.6c1.1-0.7,2.1-2.9,3-0.9c-3.2,2.7-6.2,5.6-10.2,7.6c-0.1-0.4,0.2-0.4,0.2-0.6
				C302.8,275.6,305.4,273.9,307.5,271.6"/>
			<path class="st101" d="M278.5,314.7c-1.8-1.2-0.2-4.2,0.9-5.2c1.5,0.4,3.3,0.6,4.3,1.5c-0.3,1-0.6,1.9-0.6,3
				C281.4,314.1,280.3,314.7,278.5,314.7"/>
			<path class="st102" d="M260.8,285.5c-1.2,0.1-1.9,0.7-3,0.9c-0.8,0.5-2.5,0.1-3.7,0.2v0.2c0.2,0.8-0.3,0.8-0.2,1.5v0.6
				c2.6,0.1,4,1.3,6.5,1.5c1,0.2,0-1.6,0.7-1.7C261.2,287.1,260.9,287,260.8,285.5"/>
			<path class="st76" d="M284.8,246.1c1.7,2.5,3.3,5,4.5,7.8c-4.8,1-11.3,6-16,2.4c0.3-0.6,1-0.9,1.3-1.5
				C278,251.9,281.2,248.8,284.8,246.1"/>
			<path class="st103" d="M305.8,255.9h-0.2c-0.8-1.3-1.2-3-2.2-4.1c1.7-2,3.2-4.3,6.3-5c0.5,1.8,1.5,3.1,2.4,4.5
				C310,252.9,307.8,254.3,305.8,255.9"/>
			<path class="st104" d="M5.1,248.9h0.2c0.5-0.5,1-1,1.9-1.1c2,1.8,3.9,3.6,5.4,5.8c-1-0.1-2.2,1.1-3.7,1.9
				c-1.2,0.7-4.6,2.8-4.1,0.7C4.7,253.6,5.2,251.6,5.1,248.9"/>
			<path class="st105" d="M295.8,264.3c-0.4-2.7-4-4.3-3.5-6.9c0.3-1.3,3.2-2.6,4.5-3.2c2-1,3.7-2,5.4-2.4c0.4,2,1.8,3.1,2.4,5
				C301.6,259.1,298.7,261.7,295.8,264.3"/>
			<path class="st106" d="M328.2,252c-0.3,0-0.5,0.1-0.7,0.2c-1.1,1.4-2.6,2.5-3.7,3.9c-1.3,1-2.2,2.3-3.5,3.2c0,0.4-1.5,1-0.4,1.1
				c0-0.3,0.4-0.2,0.4-0.4c3-1.7,5.2-4.3,8.4-5.8C329.1,253,328.4,252.8,328.2,252"/>
			<path class="st76" d="M356.3,259.5c0,0.9-0.3,1.4-0.4,2.2c-3.4,2.4-6.4,5.2-10.8,6.7c-0.6-1.9-1.3-3.6-1.5-5.8
				c3.1-3.1,7.6-4.8,11-7.6c0.5,1.3,0.8,3,1.5,4.1C356.2,259.3,356.3,259.3,356.3,259.5"/>
			<path class="st107" d="M40.1,269c-2.2,0.1-3.8-0.5-4.5-1.9c0.4-0.7,0.4-0.4,0.9-0.9c0.5-1.3,1.6-7.6,2.4-8.6
				c1-1.5,3.2-1.3,4.8-1.7C42.7,260.5,41.2,264.6,40.1,269"/>
			<path class="st108" d="M348.6,269.7V268c2.9-0.9,4.4-3.1,6.9-4.3c-1.6,4-3.3,7.8-4.8,11.9c-2.1,0.1-1.6-2.3-2.2-3.7V269.7z"/>
			<path class="st91" d="M284.8,273.2v2.4c0.1,0.4-0.3,1.4,0.2,1.5c2.1-3.4,4.6-6.4,7.4-9.1C290,269,285.3,269.6,284.8,273.2"/>
			<path class="st109" d="M189.5,277c0.8-2.9,1.9-5.4,3-8c2.1,1.2,4.8,1.8,5.8,4.1C195.1,274,192.4,276.6,189.5,277"/>
			<path class="st76" d="M76.4,274.9c0.6,0.5,2.4-0.1,3,0.4c0.1,1.6-0.2,2.9-0.6,3.9c-5.3-0.9-9.6-2.8-13.4-5.2
				c2.8-0.8,4.6,2,8.2,0.9H76.4z"/>
			<path class="st110" d="M220.8,290.7c-2.4-1.1-4.4-2.7-7.1-3.5c0.8-1.5,1.8-4.1,1.7-6.3c-0.1-1.1-1.3-2-0.4-2.8
				c2.5,1.1,5.2,2.1,8,2.8C221.7,283.6,221.6,287.5,220.8,290.7"/>
			<path class="st76" d="M315.9,286.6c-0.5-0.3-1.2-0.5-1.5-1.1c0.9-1.4,2-2.5,3-3.7c0.6,0.2,0.9,0.6,1.9,0.4
				C318.4,283.8,316.9,285,315.9,286.6"/>
			<path class="st76" d="M306.8,283.1c-1,2.7-1.4,5.9-4.1,6.9c1.3,2,3.8,3,5.6,4.5c0.8-1.8,2.3-2.9,3.7-4.1c1-0.8,1.8-1.6,2.6-2.6
				C314.3,285.5,308.9,284.9,306.8,283.1"/>
			<path class="st102" d="M274.4,285.7c-1.7,0.4-3.3,0.9-5.2,1.1h-2.8c-0.4,0.5-0.1,1.6-0.2,2.4c0,0.9-0.2,1.7-0.4,2.4
				c0.4,0.3-0.3,1.1,0.2,1.5c3.1,0.6,4.8,2.2,8.2,1.9c0.4-2.5,0.4-5.3,1.1-8v-1.5C274.9,285.5,274.8,285.7,274.4,285.7"/>
			<path class="st76" d="M289.3,299.3c-1.7-0.1-3-0.6-4.1-1.3c2.1-3.3,3.7-7.1,5.8-10.4c3.8-0.7,6.4,2.2,9.5,3.5
				c-0.9,3.1-2.8,5.1-4.1,7.8c-1.5,0.1-2.6,0.5-4.3,0.4H289.3z"/>
			<path class="st111" d="M32.3,291.3c-0.5-0.4-1.5-0.4-1.5-1.3c1.3-0.6,2.8-2.1,3.9-2.2c-0.6,1.3-1.1,2.7-1.7,3.9
				C32.7,291.7,32.6,291.4,32.3,291.3"/>
			<path class="st44" d="M209.8,298c-0.7-0.9-1.5-1.7-2.4-2.4c-1.6-0.4-1.6-2.5-3.5-2.6c-1.2,3.5-2.7,6.7-4.3,9.7
				c1.1,1.7,2.6,3,4.1,4.3c1.8-3.3,6.5-3.8,8.2-7.1C211.2,299.4,210.3,298.9,209.8,298"/>
			<path class="st76" d="M216,299.1c-1.1-0.9-0.7-2.6,0.2-3.7c1.3,0.5,2.6,1,3.9,1.5c-0.3,1.4-0.3,3.8,0,5.2
				c0.6,0.2,1.2,0.5,2.2,0.4c1.2,0.4,4,0.4,5.2,0c0.8,0.1,1.4,0,1.9-0.2c1.3,1.3,3.1,2.1,4.5,3.2c-0.1,1.1-4.3-0.1-5.4,0.7
				c-0.6,0.4-1.9,0.1-2.8,0.2c-0.7,0.1-1.9-0.3-2.2,0.2c-2.1,0.2-4.3,0.3-6.3,0.6c-1.1-0.7-0.7-2.9-1.1-4.3
				C216.1,301.8,216.5,300,216,299.1"/>
			<path class="st112" d="M29.1,304.9c-1.2,1.5-2.4,2.9-4.8,3.2c-2.3-3.1-6.5-4.5-9.5-6.9c2.7-1.9,5.2-4,8.2-5.6
				c2.6,2.3,4.5,5.3,6.5,8.2C29.2,304,29.2,304.5,29.1,304.9"/>
			<path class="st113" d="M2.9,300.8c3.3,3,6.8,5.7,9.7,9.1c-0.5,1.3-0.7,2.9-1.3,4.1c-3.2-1.7-6.3-3.5-9.5-5.2
				C2.3,306.3,3.1,304,2.9,300.8"/>
			<path class="st114" d="M234.9,307.1c1.5,0.2,2-0.6,3.2-0.7c-1,2.4-3.7,3.8-3.2,6.5c-0.7,0.3-1.4,0.6-1.9,1.1
				c-1.5-0.5-1.1-4.8-1.9-6.7h1.1C232.9,307.2,234.3,307.6,234.9,307.1"/>
			<path class="st98" d="M338.2,312.5c0.3-0.3,0.1-1.1,0.6-1.1c0.7,0.6,2.3,0.3,2.2,1.7c-0.4,1-1.1,2.2,0.7,2.4
				c0.2,2.4,0.5,4,0.4,6.9c0.8,1.8,2.2,3.1,2.8,5.2c-3.1-0.9-5.9-2.1-8-4.1c0.7-1.3,0.1-2.9,1.1-4.1
				C338.5,317.5,338,314.7,338.2,312.5"/>
			<path class="st115" d="M8.3,321.4c1.7-0.5,2.9-4.4,4.8-4.5c1.7-0.1,2.3,1.7,2.8,3.7v3.5v0.9c-3.7-0.3-7,1.1-10.4,0v-0.7
				C6.5,323.3,7.5,322.4,8.3,321.4"/>
			<path class="st98" d="M323.3,322.9c1.1-2,2.3-3.9,4.1-5.2c3,1.5,7.1,1.8,8.9,4.5c-1.8,4.1-4.8,6.8-7.8,9.7
				C326.2,329.4,324.3,326.6,323.3,322.9"/>
			<path class="st92" d="M178,117.1c1,1.8,2.4,3.2,3.5,5c-1.1,1.7-1.4,4.2-3.2,5.2c-1.9-1-3.8-2-5.6-3
				C174.2,121.7,175.8,119.1,178,117.1"/>
			<path class="st116" d="M182.3,123.1c1.8,2.4,2.5,6,3.7,9.1c-2.5,0.2-5.6-0.9-7.6-1.9C179.4,127.6,181.2,125.7,182.3,123.1"/>
			<path class="st117" d="M53.3,145c3.5,0.8,6.8,1.8,9.9,3c-2.9,1.4-6.5,2.1-9.7,3.2c-0.1-2.1-0.9-4.7-0.9-6.3H53.3z"/>
			<path class="st118" d="M51.1,144.8c-2.6,0.3-3.8-0.8-5.8-1.1h-2.4c1.1,2.9,1.1,6.8,2.4,9.5H47c1.2-0.1,2.9,0.3,3.7-0.2
				C53.3,151.8,52.1,147,51.1,144.8"/>
			<path class="st119" d="M77.7,159.7c1.9,2.4,3.2,5.4,4.1,8.9c-0.7,0-1.1-0.4-1.9-0.2c-0.8-2.3-0.5-5.6-2.2-6.9
				c0-0.4,0.2-0.5,0.2-0.9h-0.2C77.5,160.2,77.5,160,77.7,159.7"/>
			<path class="st120" d="M186.2,157.3c-0.6-0.3-3-0.5-3.2,0.2c-2.7,2.3-4.8,5.3-7.8,7.3c0.6,1.5,2,2.2,2.4,3.9
				c2.4-1.5,5.9-1.9,9.1-2.6h0.2c0-0.7,0-1.4,0-2.2c0-0.7,0-1.4,0-2.2c0-1.6,0.4-2.7,0.4-4.3C186.7,157.7,186.7,157.2,186.2,157.3"
				/>
			<path class="st121" d="M21.3,171.1c0-0.4-0.7-0.1-0.9-0.4c0.8-1.7,1.3-3.8,2.4-5.2c1.5,0.6,2.9,1.3,4.1,2.2
				c-0.1,1.7,0.3,3.9-0.2,5.2C24.6,172.6,23.4,171.4,21.3,171.1"/>
			<path class="st16" d="M142.3,179.1c0-0.2-0.3-0.2-0.4-0.2c0.1,0.7-0.3,1.9,0.2,2.2c0,2.6,0.2,5.4-0.4,7.4
				c1.3,0.5,2.2,1.4,3.7,1.7c0.9-2.9,2.7-5.1,3.7-8C147,181,144.4,180.3,142.3,179.1"/>
			<path class="st122" d="M16.5,182.6c1.8-0.3,3.7,1,5.2,1.7c-0.9,0.7-1.6,1.5-2.2,2.6c-0.8,0.6-1.5,1.4-2.2,2.2
				c-1,0.8-2,1.8-2.8,2.8C14.5,188.9,16.2,185.8,16.5,182.6"/>
			<path class="st13" d="M141.7,189.7c0,0.5,0,1,0.2,1.3v2.8c0.2,0.8-0.4,0.9-0.2,1.7c0.1,0.3-0.3,1.1,0.2,1.1
				c1.1-1.3,3.2-1.5,4.3-2.8C145.1,192.1,143.7,190.6,141.7,189.7"/>
			<path class="st123" d="M261.7,183.7c-1.7,0.1-4-0.3-5.4,0.2c-1.1,0.7-2.9,0.7-4.3,1.1c0.9,3,4.1,5.7,6.5,8
				c0.9-0.1,1.1-0.9,1.7-1.3c0.6-0.8,1.4-1.5,2.2-2.2c1.5-1.6,2.9-4.4,3.9-5.8H261.7z"/>
			<path class="st76" d="M39.2,196c0.2-1.2-0.3-1.8-0.2-2.8c3.6,0,7.9,1,11.9,1.3c0.6,1.7,1.6,3.2,2.2,5c-3.3,2.5-7.5,4.2-11.7,5.8
				c-0.2-1.6-0.5-2.9-0.9-4.3C40.4,199,39.9,197.5,39.2,196"/>
			<path class="st124" d="M257.3,202.3c0.1,0.2,0.2,0.4,0.4,0.4c-2.3,1.3-4.9,2.3-8,2.8c0.2-2.1,2-6.3,4.3-6.1
				C255.7,199.6,255.5,201.9,257.3,202.3"/>
			<path class="st124" d="M231.8,212c-2.4,1-4.1,2.6-6.3,3.9c0.2-1.5,1.7-3.6,2.6-5.2C229.7,210.8,230.9,211.3,231.8,212"/>
			<path class="st13" d="M140.6,204.2c0.1,3.4-0.4,6.2-0.2,9.7c-0.5,0.4-0.1,1.7-0.2,2.4v0.6c1.6-2.3,4-3.9,4.8-7.1
				c1.1-0.5,2.3-0.9,2.6-2.2C145,206.7,142.9,205.3,140.6,204.2"/>
			<path class="st93" d="M340.1,218.5c-0.7-0.5-2.4-0.1-3.5-0.2c0.2,0.2,0.2,0.5,0.2,0.9c0,2.3,1,3.6,1.1,5.8
				c0.1,0.8-0.3,2.2,0.2,2.6c0,1.2,0.2,2.2,0.6,3c0.7,0,0.8-0.6,1.7-0.4c0.3-0.6,1.8,0.1,2.2-0.4c0.5-0.1,0.6-0.7,1.1-0.9
				C346.4,224.3,341.9,221.3,340.1,218.5"/>
			<path class="st94" d="M50.7,223.4c0-0.2-0.1-0.2-0.2-0.2c0.1,0.9-0.3,2.4,0.2,3c0.8,0.8-0.7,3.8,1.5,3c0.8,0.2,0.7-0.5,1.1-0.6
				C52.6,226.7,51.8,225,50.7,223.4"/>
			<path class="st125" d="M29.5,236.2c-2.6-1.5-3.7-3.6-4.8-6.7c0.5-1.8,1.3-3.3,2.6-4.3c4.3,1.6,7.5,4.3,11,6.7
				c-1.4,2.2-3.3,3.8-5,5.8c-0.5-0.3-0.6-0.2-1.4-0.4c-1.1-0.6-0.6-0.5-0.8-0.5c-0.5,0-0.5-0.1-1.2-0.4
				C30,236.2,29.6,236.2,29.5,236.2"/>
			<path class="st76" d="M355.9,226.5c2.5,0.8,4.1,2.6,5.2,4.8c0.5,2.8-3,1.8-4.8,2.4C357,231.4,355.7,228.2,355.9,226.5"/>
			<path class="st101" d="M305.3,232.1c0.7,0.4,0.9,1.3,1.1,2.2c-2,2-2.7,5.3-6.3,5.8c-0.1-2.1,0.5-3.6,0.7-5.4
				C302.4,234,303.8,232.9,305.3,232.1"/>
			<path class="st126" d="M355.3,233.2c0.1-2.8-0.2-5.3-1.1-7.1c-0.3,0-0.6,0-0.7-0.2h-2.2c0.2,0.6-0.3,0.6-0.2,1.1
				c-0.1,0.8,0.4,1,0.4,1.7c0.3,1.8,1.5,2.7,1.5,4.8c-0.2,0.6,0.4,0.4,0.4,0.9c0.7-0.1,1.2-0.2,1.7-0.4c0-0.3-0.6-0.1-0.6-0.4
				C354.6,233.1,355,233.2,355.3,233.2"/>
			<path class="st127" d="M120.5,232.9c-0.1-0.4-0.4-0.5-0.9-0.4c-0.4-0.4-1.1-0.5-2-0.4c-0.7,0.2-0.4,1.5-0.6,2.2
				c-0.5,0.6-0.1,2.1-0.2,3v1.1c-0.3,1.1,0.6,1.1,1.3,1.3h0.2c-0.2-1.5,0.6-2,0.9-3c0.2-0.5,0.5-0.8,0.4-1.5c0.1,0,0.2,0,0.2-0.2
				C120.2,234.4,120.2,233.5,120.5,232.9"/>
			<path class="st24" d="M95.4,225.4c-0.2,0-0.2-0.2-0.4-0.2c-0.9,0.1-2.3-0.3-2.6,0.4c-1.9,3.7-2.5,8.6-5.8,10.8
				c-0.2,0-0.2,0.2-0.2,0.4c0.9-0.1,2.3,0.3,2.8-0.2h0.6c0.9-0.1,2.4,0.3,3-0.2c0.9,0,1.9,0.1,2.6-0.2
				C95.8,233.1,95.8,228.5,95.4,225.4"/>
			<path class="st128" d="M84.2,227.8c-3.7,0.4-6.6,1.5-9.1,3c0.6,2.1,1.3,4,1.7,6.3v0.2c0.8-0.1,2.2,0.3,2.6-0.2
				c1.8-0.5,3.7-0.9,5.2-1.7C84.4,232.9,84.2,230.4,84.2,227.8"/>
			<path class="st129" d="M84.8,236.8h-0.2c-2.6,1.3-8.9,0.7-11.2,3c2.8,2.8,4.8,6.4,8.9,8c1.7-1.8,2.3-4.7,2.4-8.2
				c0.3-0.1,0.2-0.5,0.2-0.9V236.8z"/>
			<path class="st130" d="M32.1,237.9c0.8,3.3,2.8,5.6,3.7,8.9c-2.4,1.3-4.4,3.1-7.1,4.1c-1.5-1.4-2.7-3-4.3-4.3
				c2-3.4,5-5.9,7.1-9.1C31.8,237.5,31.8,237.8,32.1,237.9"/>
			<path class="st131" d="M12.6,234c-2.2,1.5-5.5,3.5-7.1,6.3H5.3v7.1c0.7-0.1,1.2-0.2,1.7-0.4c1.3-1,2.3-2.2,3.2-3.5
				c1.1-1.7,2.9-2.8,4.3-4.3C13.7,237.8,13,236.1,12.6,234"/>
			<path class="st76" d="M298.4,243.1c0.2,0,0.2-0.1,0.2-0.2c-0.4-0.5-1.8-0.1-2.6-0.2h-0.6c-0.6-0.5-2.1-0.1-3-0.2
				c-1.1,0.1-1.5-0.4-2.6-0.2c-1.3,1-2.6,2.1-4.1,3c2.1,3.6,4.2,7.1,6.5,10.6c2.7-1.6,5.9-2.9,8.9-4.3
				C300.6,248.5,296.9,246.7,298.4,243.1"/>
			<path class="st76" d="M212.6,242.5c-0.1-0.5-0.7-0.5-0.9-0.9c-1,0.7-1.5,2-2.6,2.6c-2,2.7-4.9,4.5-6.1,8c1,0.6,1.3,2.1,2.2,2.8
				c2.3-0.8,3.7-2.4,6.7-2.4c1.3-0.1,3.2,0.3,4.1-0.2c0.4,0,0.5-0.3,0.9-0.2C214.8,249.6,215.7,244,212.6,242.5"/>
			<path class="st132" d="M112.3,253.5h0.6c-1.1,3.3-2.7,6.1-4.5,8.6c-0.7,0.4-1.7-0.5-1.9-1.3c1.4-2.4,2.9-4.8,4.3-7.1
				C111.3,253.7,112,253.8,112.3,253.5"/>
			<path class="st133" d="M199.8,255.9c0.7-1,1.4-2,2.2-3c1.3,0.5,1.4,2.2,2.4,3c-1.1,0.7-2.3,1.3-2.8,2.6
				C200.9,257.6,200.3,256.9,199.8,255.9"/>
			<path class="st134" d="M100.2,261.9c-0.2,2.6,0.1,5.7-1.3,7.6c-2.5-1.5-7.7-0.4-9.9-2.2c1.3-3.9,3.7-6.7,6-9.5
				c1.8,0.3,3.2,1.1,5,1.5C100.4,259.8,100.1,261.1,100.2,261.9"/>
			<path class="st135" d="M225.3,255.4c-0.4,0.9,0.8,1.9,0.7,3.2c0.1,0.9-0.3,2.3,0.2,2.8c0.3,0.3,0.2,0.9,0.2,1.5
				c1.1-0.3,1.8-1.1,2.8-1.5c0.9-1.3,1.5-2.9,2.2-4.5C229.6,256.2,227.3,255.9,225.3,255.4"/>
			<path class="st109" d="M101.7,260.4c-0.6,3.3-0.5,7.4-1.7,10.2c-0.3,0.4-0.6,2.7,0.2,2.8c0-0.2,0.2-0.3,0.2-0.4
				c2.3-3.1,4.6-6.2,6.9-9.3C106,262,103.9,261.2,101.7,260.4"/>
			<path class="st136" d="M221.2,263.9c-1.3,0.1-3.2-0.3-4.1,0.2c1.1,1.8,2.8,2.9,4.8,3.9c0.7-1,1.5-2,2.4-2.8
				c0.1-0.6,0.9-0.5,0.9-1.3H221.2z"/>
			<path class="st137" d="M77.9,274c-0.5,0.1-0.8,0-1.1-0.2c1.5-2.8,1.2-6.1,2.2-9.5c3.6,1.8,7.2,3.7,10.2,6.3
				c-0.2,1.1-0.3,2.1-0.2,3.5h-2.8c-1.1-0.4-3.7-0.4-4.7,0H77.9z"/>
			<path class="st138" d="M36.2,284.2c-2.8-1.4-7.2-1.9-8.9-4.1c-1.4-1.9-1.5-4.9-2.4-7.3c-0.9-2.3-2.4-3.9-2.8-6.1
				c2-1,4.4-1.5,5.2-3.7c2.8,2.6,6.9,3.8,9.1,6.9c-0.7,1.6-0.6,3.8-1.7,5c0.9,1.9,0.7,4.9,1.7,6.7c0.1,0.2,0.2,0.3,0.2,0.6
				C36.6,283,36.3,283.5,36.2,284.2"/>
			<path class="st37" d="M272.9,257.4c-0.4,0.1-0.4-0.2-0.7-0.2c-2.1,2.4-4.3,4.6-6.3,7.1c0.2,0.7,1.7,0.2,2.2,0.6
				c0.3,0.5,1.5,0.1,2.2,0.2c0.5,0,0.6,0.4,1.3,0.2C271.9,262.7,273.7,260.4,272.9,257.4"/>
			<path class="st139" d="M38.8,272.5c-0.4-0.4-1.6,0-1.9-0.4c0-1,0.2-1.8,0.9-2.2c0.7,0.1,1.9-0.3,1.9,0.4
				C39.3,271,39.4,272.2,38.8,272.5"/>
			<path class="st140" d="M226.4,269.7c-0.3,0.9-0.7,1.8-0.9,2.8c-0.5-0.7-1-1.5-1.1-2.6C225.3,270.1,225.7,269.7,226.4,269.7"/>
			<path class="st137" d="M88.5,279.4c-0.4-1.1-0.4-3.6,0.4-4.1c1.9,1,4.5,1.3,6.7,1.9C93.6,278.4,91.1,279,88.5,279.4"/>
			<path class="st92" d="M258.8,274.7c0.8,0.8,0.3,2.9,1.1,3.7c-1,0.9-1.8,2-3.7,1.9C257.1,278.4,258.1,276.6,258.8,274.7"/>
			<path class="st76" d="M344.9,293.5c-2.5,0.6-5.5-0.3-7.4-1.1c-0.1-1.3,0.4-1.9,0.2-3.2c2.7-2.4,3.6-6.5,6.5-8.6
				c1.3,0.6,2.4,1.5,3.5,2.4C346,285.6,345.8,289.9,344.9,293.5"/>
			<path class="st141" d="M280.5,280.7c-1,0.5-1.7,1.3-2.4,2.2c1.1,0.4,2.3,0.8,3.2,1.3c0.3-1.2,0.8-2.3,1.3-3.2
				c0.2,0,0.2-0.1,0.2-0.2C282.5,280.4,280.8,280.4,280.5,280.7"/>
			<path class="st92" d="M259.9,280.3c-1.4,0.5-2.9,1-4.3,1.5c-0.3,1.3-0.8,2.2-1.1,3.5c0,0.2,0,0.4,0.2,0.4c0.2,0.4,1.9,0.4,2.2,0
				c1.1-0.6,2.2-1.3,3.9-1.3C260.7,282.8,260.4,281.4,259.9,280.3"/>
			<path class="st142" d="M3.8,278.8c1.4-1.7,4.2-2,5.2-4.1c3.5,2.9,6.8,5.8,10.2,8.9c-1.8,1.3-2.8,4.3-5.2,4.3c-3,0-7.2-4.9-10.2-5
				v-1.5V278.8z"/>
			<path class="st109" d="M253.4,290c3.6,1,7.8,1.4,11.2,2.6c0.9,1.6,0.9,3.5,0.7,5.8h-3.5h-0.4c-1-0.5-3-0.1-4.3-0.2
				c-1.4-0.2-2.7-0.6-4.1-0.9v-1.1v-2.2C253.1,292.7,253.3,291.4,253.4,290"/>
			<path class="st109" d="M302.3,291.5c-1.8,1.6-2.7,4.2-3.9,6.5c1,1.4,2.6,2.2,2.8,4.3v0.2c0.2,0,0.3-0.2,0.4-0.2
				c1.1-0.9,2.1-1.9,3-3c0.1-0.4,0.6-0.4,0.6-0.9c0.8-1,1.8-1.8,2.4-3C305.8,294.2,304.1,292.8,302.3,291.5"/>
			<path class="st92" d="M341.6,306c-0.9,0.5-4.1-0.4-5-1.1c-0.8-0.6-3.4-4.1-3.5-4.8c-0.2-2.3,3.2-4.9,3.7-6.7
				c2,1.1,5.1,1.1,7.8,1.5c-0.1,1.2-0.3,2.1-0.2,3.5c-0.1,0.4-1.2-0.1-1.3,0.4c-0.5,0.7-0.1,2.4-0.2,3.5
				C342.9,303.9,342.1,304.8,341.6,306"/>
			<path class="st143" d="M220.4,295c-0.4,1.1-2.8-0.2-3.7-0.6c0.4-1.3,0.8-2.6,1.7-3.5c0.9,0.2,1.5,0.7,2.4,0.9
				C220.7,292.9,220.3,293.7,220.4,295"/>
			<path class="st144" d="M320,298c-0.1-1.2,0.1-2.1,0.4-2.8c0.5,0,0.1-0.8,0.2-1.1c0.8,0.7,1.8,1.2,2.2,2.4
				C322.2,297,320,300.2,320,298"/>
			<path class="st91" d="M290,286.3c-2.3,0.9-5.5,7-8.9,5.4c-1.2-1.5-0.8-4.2-0.2-6c-0.9-1-2.3-1.5-3.9-1.7c-1,3.3-1.3,8.3-1.5,11.7
				c2.4,0.1,3.7,1.2,5.8,1.5c0.9,0,1.9,1.1,2.8,0.4c2.3-3.4,3.9-7.6,6.3-11C290.2,286.6,290.1,286.4,290,286.3"/>
			<path class="st145" d="M186,299.5c1.4-0.2,1.6-1.7,3-1.9c1.3,2.3,3.1,4.1,4.1,6.7c-0.9,1.7-2,3.4-2.8,5.2v-0.7v-0.2
				c-0.8-1-1.6-1.8-2.6-2.6h-0.2c-0.4-0.2-0.8-0.8-0.6,0.2C186.3,304.3,186.4,301.7,186,299.5"/>
			<path class="st92" d="M253.2,298.7c0.6-0.1,2.8,0.2,3.5,0.9c-0.1,1.5,0.3,3.4-0.2,4.5c-0.5-0.4-1.4-0.2-2,0
				C254,302.3,253.4,300.7,253.2,298.7"/>
			<path class="st92" d="M240.5,300c-1.3,0-1.8,0.8-3,0.9c0,1.4-0.8,3.1-0.4,4.1c0.2,0.5,1.2,0.1,1.7,0.2c0.2,0,0.4,0,0.4-0.2
				C238.7,302.5,240.8,301.6,240.5,300"/>
			<path class="st92" d="M255.2,305.1c2.5-0.3,5.7,0.6,7.6,1.7c1.1,0.2,2.5,0,2.8,0.9c-0.6,1.4-0.6,3.4-1.1,5
				C260.5,311.1,257.4,308.5,255.2,305.1"/>
			<path class="st76" d="M266,313.4c-0.6-1.7,0.7-5.1,0.9-7.4c4.4,0.4,7.8,1.7,11.2,3c-0.9,1.7-2.3,3.9-1.1,5.8
				C272.7,315,269.2,314.3,266,313.4"/>
			<path class="st98" d="M341.4,310.1c-0.2,1.6-2.1,0.2-3,0c0-1.1-0.8-2.4-0.2-3.5c1.1,0.4,2.5,0.7,3.7,1.1
				C342,308.9,341.6,309.4,341.4,310.1"/>
			<path class="st92" d="M320.7,310.3c3.3,0.7,4.7,3.4,6.9,5.2c-1.8,1.7-3.3,3.8-4.8,5.8C321.8,318,321.2,314.2,320.7,310.3"/>
			<path class="st146" d="M336.9,317.7c0.1,1.1-0.1,2-0.4,2.6c-2.2-1.8-5.9-2-8-3.9c2.8-1.2,5.6-3.6,8.4-4.1V317.7z"/>
			<path class="st147" d="M209.6,317.9c-1.3,2.5-3.4,5.4-3.2,8.6c1.7,0.7,3.2,0.3,4.8-0.2c0.7-0.1,1.9,0.3,2.2-0.2
				c3.2,0.2,3.5-2.4,5.6-3.2C216.3,320.6,212.8,319.4,209.6,317.9"/>
			<path class="st148" d="M8.3,332.2c-0.5,0.6-0.1,2.1-0.2,3c-0.4,0.1-1.3-0.3-1.3,0.2c-1.8,0.2-3,0.5-4.8,0.2
				c-2.8-1.9-2.3-7-1.1-10.4h0.2c2,1.2,6.2,0.1,8,1.5C9.1,328.8,8.5,330.2,8.3,332.2"/>
			<path class="st149" d="M25.2,180.4c-1.2,0.5-1.7,1.7-2.6,2.4c-1.6,0.2-3.5-0.7-4.5-1.7c0.7-3.4,3.5-4.9,3.9-8.6
				c2.4,0.4,8,2.9,6.1,5.2C27,178.5,26,179.4,25.2,180.4"/>
			<path class="st93" d="M140.2,231.2c1.5,1.6,4.1,1.9,5.4,3.7c-2.6,2.1-3.1,6.3-5.4,8.6V231.2z"/>
			<path class="st150" d="M3.1,294.1c0.6,0-0.2-1.3,0.4-1.3c0,0.8,0.8,0.8,1.1,1.3c-0.6,1-0.9,2.2-1.5,3.2v-1.1V294.1z"/>
			<path class="st151" d="M319.8,300.6c1.7-1.1,3-2.6,5-3.5c1.6,2.2,5.2,2.4,6.9,4.5c-2.6,2.8-4.4,6.4-7.3,8.9
				c-1.7-0.2-2.5-1.4-3.9-1.9C320.4,305.7,320.3,303,319.8,300.6"/>
			<path class="st152" d="M206.1,306.7c3.2-2.1,5.6-4.9,8.9-6.9c0.4,1.1,0,3,0.4,4.1c0.1,0.7-0.3,1.9,0.2,2.2
				c-0.1,0.7,0.1,1,0.2,1.5c-3.7,0.7-6.4,2.2-10.8,2.2c0.2-1-0.4-1.1-0.4-1.7c0.4-0.2,0.7-0.5,0.9-0.9
				C205.8,307.1,206,306.9,206.1,306.7"/>
			<path class="st145" d="M197.5,314.2h-5.2c-1,0.1-1.9-0.7-1.9,0.6c0,1.1,0.9,1.4,1.3,2.2c0.6,0.8,1.4,1.5,2.2,2.2
				c1,0.8,2,1.6,3,2.4c0.4-2.9,1.7-4.8,2.4-7.3C198.8,313.6,198.2,314.5,197.5,314.2"/>
			<path class="st153" d="M224.9,258.7c-0.3-1.1-0.8-2-1.1-3c-3.2-0.1-5.1,1-7.8,1.3c0,0.3,0.1,0.8-0.2,0.9c0,0.3-0.1,0.5-0.2,0.6
				c0.1,1.6,0,3-0.4,4.1c0.3,0,0.5,0.1,0.6,0.2c1.8,0.5,4.5,0.1,6.7,0.2c0.9-0.1,1.8-0.2,2.6-0.4v-0.9
				C225,260.8,225.4,259.3,224.9,258.7"/>
			<path class="st154" d="M226.9,268.4c-1.5,0-3.2,1.2-4.1,0.4c1.5-2.3,3.1-4.5,5.8-5.6C228.2,265.1,227.1,266.3,226.9,268.4"/>
			<path class="st78" d="M148.2,270.6c-0.1-1.2,0.3-3-0.2-3.9c-0.1-0.5-0.3-1-0.2-1.7c-0.8-0.6-2.7-0.2-3.7-0.6
				c-1.3,0.6-1.8,2-3,2.6c0.1,4.7,0.7,8.9,1.1,13.4c2.3-0.1,5,0.3,6.5-0.7C149.3,276.8,148,274.1,148.2,270.6"/>
			<path class="st155" d="M35.6,285.9c-2.8,1.8-5.6,3.5-8.4,5.2c-1-2.7-1.9-5.6-2.8-8.4c0.5-0.8,1.6-1.1,2.6-1.5
				c2.9,1.3,5.8,2.7,8.6,4.1V285.9z"/>
			<path class="st76" d="M321.3,283.7c-0.1-0.2-0.2-0.4-0.4-0.4v6.9c-0.3,3.1,1.9,3.7,3,5.4c2.2-1.7,3.2-4.7,5-6.9
				C326.7,286.8,324.1,285.2,321.3,283.7"/>
			<path class="st156" d="M203.9,309c-0.6-0.8-1.3-1.5-2.2-2.2c-1.9-2.4-4.7-3.8-8-4.8c2.2,3.9-4.4,6.9-1.9,11
				c1.5,0.4,4.5,0.4,6.1,0c1.2-0.9,3.6-0.6,5.6-0.6C203.8,311.5,204,310.4,203.9,309"/>
			<path class="st157" d="M176.1,215c-1.2-0.4-2.5-0.7-2.8-1.9c1.2-0.5,2.8-1.8,3.9-1.7C176.9,212.6,176.2,213.6,176.1,215"/>
			<path class="st92" d="M159.8,108.9c4.4-1,9.6,0.2,11.9,2.6c-0.1,1.1-2.4,1.9-3.5,2.8C164.5,113.4,162.2,111.1,159.8,108.9"/>
			<path class="st94" d="M107.5,236c2.6,0.8,4.9,1.9,7.3,2.8c-2.6,4.1-5.6,7.9-8.6,11.7c-2.2-0.6-4.2-1.3-5.8-2.4
				c0.9-2.7,0.8-6.4,1.5-9.3c0.5-0.3,0.1-1.5,0.2-2.2c0.2-1.1,0.9-1.7,1.9-1.9C105.4,235,106.2,235.7,107.5,236"/>
			<path class="st73" d="M8.3,295.2c2.7,0.9,3.2,4,5.4,5.4c3.7-2.3,7.1-4.8,10.6-7.4c-3.7-1.1-6.4-5.9-10.6-4.3
				C12.7,291.8,9.8,292.8,8.3,295.2"/>
			<path class="st158" d="M24.3,248.3c-1.9,2.9-5.6,3.9-7.8,6.5c2.1,1.6,3.6,3.8,7.1,3.9c1.5-2.4,1.5-6.2,3-8.6
				C25.7,249.7,25.4,248.6,24.3,248.3"/>
			<path class="st159" d="M26,261.7c-1.5-1.4-3.4-2.5-6.1-2.8c-3,3.4-6.5,6.3-10.6,8.6c-0.1,1-0.8,2-0.2,3c6-0.8,11.2-4.3,16.4-6.5
				C25.7,263.2,26,262.6,26,261.7"/>
			<path class="st160" d="M79,247.9c-1.6,2.5-4.1,4.2-5.6,6.7c2.3,0.5,4.6,1,6.5,1.9c0.8-2,1.2-4.4,2.2-6.3
				C81.4,249.1,80.6,248,79,247.9"/>
			<path class="st149" d="M39.7,183.7c1.3-0.9,2.1-2.3,3.9-2.8c-0.4-2.5-1.6-4-2.2-6.3h-0.6c-0.9,0.2-1.2,1-1.5,1.7
				c-0.5,1.8-2.5,2-3.5,3.2C36.9,181.1,37.2,183.4,39.7,183.7"/>
			<path class="st161" d="M28,174.4c1.9,2,4.8,3,6.9,4.8c1.1-1.7,3.7-1.9,4.1-4.3c-1.3-2.9-2.3-6-3.5-8.9c-1.2,0.6-3.3,0.3-4.8,0.6
				c-0.4-0.4-2.2-0.4-2.6,0c-1,0.6,0.2,2.5-0.2,3.9C27.6,171.3,27.6,173.6,28,174.4"/>
			<path class="st162" d="M27.1,201c3.2,0,7.2-1.1,10.8-1.5c0.2-0.7-0.3-0.8-0.2-1.5v-0.4c0-1-0.1-2,0-2.8c-0.1-0.5,0.3-1.6-0.2-1.7
				c-1.7-0.6-4-0.7-6.1-0.9c-1,0.5-1.2,1.1-1.9,2.6c-0.4,0.8-1.1,2.3-1.7,3C27.5,198.7,26.3,199.7,27.1,201"/>
			<path class="st163" d="M77.1,183.2c-1.1,0.5-2.8,0.5-4.1,0.2c-0.9,3.2-2.1,7.3-1.7,11c2-1.6,6.4-1.3,7.1-4.1
				C78.7,189.1,77.8,183.5,77.1,183.2"/>
			<path class="st94" d="M118.3,203.1c-2.8-1.4-3.9-4.6-6.1-6.7c-2.1,2-3.1,5.2-5.8,6.5c3.4,0.6,5.7,2.2,8.9,3
				C116.1,204.7,117.6,204.3,118.3,203.1"/>
			<path class="st164" d="M87.9,268c0.9-4.5,3.7-7,5.6-10.4c-4-1.6-7.5-3.6-11.2-5.4c-1.1,3.5-2.3,7-3,10.8
				C82.1,264.7,84.6,266.7,87.9,268"/>
			<path class="st165" d="M130.4,175.7c0.6,0.5,2.1,0.1,3,0.2c0.9-0.1,2.2,0.2,2.8-0.2c-1-3.3-2.6-5.8-3.9-8.9
				c-3-1.2-6.6,0.2-8.4,1.5C126.1,170.8,126.2,175.3,130.4,175.7"/>
			<path class="st166" d="M112.7,193.8c0.4-1.8,0.9-3.4,1.9-4.5c-0.4-0.6-0.1-1.9-1.1-1.9c-1.7,1.6-3.7,2.8-4.8,5
				C110.1,192.9,110.7,194,112.7,193.8"/>
			<path class="st167" d="M23.9,229.1c0.5-1.9,1.6-3.3,2.6-4.8c-0.8-2.2-2.7-3.4-3.5-5.6h-0.6c-2,2-4.4,3.7-6.7,5.4
				C18.1,226,20.4,228.1,23.9,229.1"/>
			<path class="st12" d="M115.1,223.2c0.1-2.3-3-3.8-4.3-5.6c-2.6,2.4-5.8,4.3-7.6,7.6c3.3,0.6,5.6,2.3,8.4,3.5
				C112,226.2,115,225.4,115.1,223.2"/>
			<path class="st76" d="M140.4,166.8c0.7-0.7,1.1-1.6,1.5-2.6c-3.3-2.3-6.6-4.6-10.2-6.7c-1.6,2.8-3.6,5.2-5.2,8
				C131.3,164.4,135.8,166.4,140.4,166.8"/>
			<path class="st168" d="M28.6,202c0.7,1,2.7,2,4.8,2.8c1.8,0.7,4.5,2.3,5.8,1.9c2.3-0.7,0.9-5.1-0.9-6.3
				C35.1,201,31.5,201.2,28.6,202"/>
			<path class="st169" d="M44.6,180.4c2.1,0.5,5.7,1.5,8,0.4c0.1-1.4-0.6-1.8-0.6-3c0.2-1-0.9-2.7-1.3-3.9v0.2
				c-0.3-0.1-0.4-0.5-0.4-0.9c-3-0.8-5.7,0.5-7.6,1.5C43.1,176.9,43.8,178.7,44.6,180.4"/>
			<path class="st170" d="M46.6,191c1.4,0.8,2.8,1.5,5,1.5c1.4-2.6,2.1-6,2.6-9.5c-1.8-1.6-6.2-0.4-9.1-1.3
				C45.4,185,46.2,187.8,46.6,191"/>
			<path class="st171" d="M32.7,191.2c4.4,0.4,9.3,1.4,13.2,1.5c-1-3.4-0.8-8-2.4-10.8h-0.2c-1.7,1.4-3.6,3-5.4,4.5
				C36.1,188.1,34,189.3,32.7,191.2"/>
			<path class="st172" d="M17.6,200.1v1.3c0.1,1.3-0.3,3.2,0.2,4.1c0,1.1,0.3,1.9,0.7,2.6c3.1-0.8,3.2-4.7,5-6.9
				c-1.9-1.2-3.8-2.3-5.4-3.7C17.1,196.5,17.3,199.7,17.6,200.1"/>
			<path class="st76" d="M21.1,208.3c0.3,0.1,0.5,0.3,0.9,0.4c0.8,0.9,1.5,1.8,2.6,2.4c1.5,0.7,1.8,2.5,4.3,2.2
				c1.1-2.6,2-5.3,3.2-7.8c-2.4-1.4-4.6-3-7.8-3.7C23.4,204.2,21.8,205.8,21.1,208.3"/>
			<path class="st86" d="M55.2,182.8c3.6,0.3,7-0.7,6.9-4.8c-3.2-2.3-5.9-5-10.2-6.3C52.4,175.3,53.3,180.1,55.2,182.8"/>
			<path class="st173" d="M62.8,179.1c-0.2,0.5,0,1.4-0.2,1.9c-0.4,1.3-2.4,2.7-1.3,4.3c3.3,0.2,7.1-1,9.9-1.9
				c-1.5-2.2-1.3-6.2-3-8.2C66.3,176.1,63.7,177,62.8,179.1"/>
			<path class="st174" d="M71,184.5c-2.6,1.3-6.3,1.5-9.3,2.4c1.3,3.7,2.1,7.3,3,11c2.1-0.2,3.2-1.4,4.8-2.2c0.8-3.5,0.9-7.7,1.9-11
				C71.4,184.6,71.3,184.5,71,184.5"/>
			<path class="st175" d="M44.2,167.9c0.4,1.5,1,2.7,1.5,4.1c2-0.6,4.6-0.6,6.7-1.1c-0.4-1.1-0.9-2.1-0.9-3.7
				C50.4,164.9,45.7,166.3,44.2,167.9"/>
			<path class="st176" d="M66.5,173.1c-3.3-0.5-7.1-0.5-10.4-1.1c2,2.1,4.8,3.3,6.9,5.2C64,175.6,67.2,175.7,66.5,173.1"/>
			<path class="st177" d="M65.6,199c1,2.8,2.1,5.6,3.5,8c4.2,0.8,8.6,1.3,12.8,2.2c-1.8-5.7-5-10.1-8-14.7
				C70.7,195.6,68.7,197.9,65.6,199"/>
			<path class="st178" d="M64.7,160.5c-3.9,2.8-8.6,4.8-12.1,8c0.2,0.9,0.7,1.6,1.1,2.4c3.4,0.1,8.8,0.9,12.3,0.9
				c0.7-3.4-1.1-5.9,0.6-8.4C66.1,162.4,65.8,161.1,64.7,160.5"/>
			<path class="st179" d="M172.2,162.5c-1.7-2-2.7-4.8-4.8-6.5c-2.4,3.5-5.2,6.8-7.1,10.8c1.2,0.8,2.1,2,2.4,3.7
				C166.9,168.9,169.8,165.9,172.2,162.5"/>
			<path class="st180" d="M151.6,153.4c0.8,1.6,1.9-0.8,2.4-1.5c0-0.3,0.3-0.3,0.2-0.6c-1.1-0.7-2.1-0.6-3.2,0
				C151,152.2,151.6,152.5,151.6,153.4"/>
			<path class="st181" d="M165.7,223.7c0.5-2.8,2.6-4,3.2-6.7c-3.5-0.4-6.5-1.3-9.3-2.4c-1.9,1.7-3.6,3.7-4.3,6.7
				C158.8,222,161.3,223.8,165.7,223.7"/>
			<path class="st20" d="M146.4,211.5c2.2,3.1,4.3,6.3,7.8,8.2c0.9-2,3-3.9,3.5-5.6C154,213.8,148.3,204.7,146.4,211.5"/>
			<path class="st182" d="M154.2,235.5c0.7-2,3-2,4.3-3.2c2.3-2.1,3.4-4.9,5.4-7.3c-3.4-0.5-6.1-1.8-9.3-2.6
				c-2.6,2.5-5,7.7-3.2,11.9C152.5,234.5,153.1,235.3,154.2,235.5"/>
			<path class="st76" d="M148.8,158.4c4.2,1.9,5.9,6.2,10.4,7.8c1.3-3,3.4-5.1,4.5-8.2c-2.9-1.9-5.4-4.2-8.6-5.8
				C153.7,154.9,150.7,156.1,148.8,158.4"/>
			<path class="st183" d="M31.2,225.8c0.5-1,2.3-0.8,2.2-2.4c0.5-0.4,0.1-1.6,0.2-2.4v-0.6c0.5-0.4,0.1-1.8,0.2-2.6v-5
				c-3.1,0.6-6.1,1.8-8.2,3.5c-2.3,1.8-1.8,2-0.4,3.9c0.5,0.7,1.9,3.6,2.4,4.1C28.5,225.1,30.3,225.1,31.2,225.8"/>
			<path class="st12" d="M154,221.3c-3.6-2.2-5.8-5.7-8.6-8.6h-0.4c-1,1.9-2.6,3.3-3.7,5.2c2.4,4.4,3.6,10.1,8.2,12.3
				C150.5,226.7,151.5,223.3,154,221.3"/>
			<path class="st184" d="M144.5,167.2c0.9-0.6,2.4-1.1,3.5-0.4c1.5-1.3,2.7-2.8,3.9-4.3c-0.6-1.7-2.2-2.6-3.9-3.2
				c-2.8,1.9-4.3,5.1-6,8c0.4,0.2,0.2,0.4,0.6,0.5l0.4,0.3C144.1,167.9,143.8,167.9,144.5,167.2"/>
			<path class="st185" d="M156,150.4c3.3-2.9,4.7-7.9,6.5-12.3c-1-1.5-1.9-3-3.7-3.7c-1.9,1.3-4.3,2.1-6.3,3.2
				c2.1,3.3,0,7.4-0.2,11.5C153.7,149.3,154.3,150.3,156,150.4"/>
			<path class="st186" d="M151,154.7c-0.3-1-0.8-1.8-1.3-2.6c-3.5-0.9-6.2,1.9-8.9,2.4c-3.2,0.6-5.8-0.2-8.2,1.7
				c3,2.8,6.8,4.8,10.2,7.1C144.8,159.8,148.1,157.5,151,154.7"/>
			<path class="st187" d="M162.4,128.1c1.6,1.2,3.3,2.2,5.2,3c1.8-4.2,4.3-7.8,6.5-11.7c-2.7-1.7-5.1-3.9-8.6-4.8
				c-0.5,0.9-0.7,2-1.1,3c-0.4,0.3-0.4,2.1,0,2.4C164.4,123.4,164.3,126.6,162.4,128.1"/>
			<path class="st188" d="M168.5,132.4c1.4,1.1,2.8,2.3,4.5,3c1.7-2.3,3.2-4.7,4.8-7.1c-2-1-3.4-2.6-6.3-2.8
				C170.5,127.8,169.5,130.1,168.5,132.4"/>
			<path class="st76" d="M176.3,144.1c-1.2-2.9-5.1-4.1-4.5-8c-3.5-2.1-6.1-5-9.7-6.9c-0.8,1.2-1.7,2.3-1.9,4.1
				c1.3,1.5,2.8,2.8,3.7,4.8c-0.9,2.3-2.1,4.4-2.6,7.1c2.1,2.6,6.4,3.1,8.9,5.4C172.1,148.5,173.5,145.6,176.3,144.1"/>
			<path class="st76" d="M147.7,151c0.7-0.1,1.9,0.3,2.2-0.2c1.7-2.6,2.1-6.5,2.4-10.6c-0.2-0.8-2.7-0.5-3.2-0.2
				c-3.3,0.2-6.2,0.9-9.3,1.3c2.1,2.8,2.7,7.1,4.3,10.4C145.3,151.5,146.3,151,147.7,151"/>
			<path class="st189" d="M158.8,133.3c0.1-2.4,1.9-3.5,1.7-5.6c-3-3.5-4.7-0.7-6.7,1.3c-1.7,1.6-3.9,2.7-5,3.7c1,1.4,1.9,2.9,3,4.1
				C153.8,135.3,156.3,134.3,158.8,133.3"/>
			<path class="st190" d="M151.2,138.7c-0.9-4-4.6-5.2-8-6.7c-0.5,0.3-1.2,0.4-1.3,1.1C144,135.8,145.3,140.5,151.2,138.7"/>
			<path class="st191" d="M174.3,180.6c-1.5-4.6-3.9-8.3-6.5-11.9c-1.5,1-2.7,2.2-4.5,2.8c0.9,4.3,1.1,9.4,2.4,13.4
				C168.9,183.8,172.1,182.8,174.3,180.6"/>
			<path class="st192" d="M161.6,172.4c-1.5,2.6-5,3.2-6.3,6.1c2.8,2.4,5,5.4,9.1,6.5C163,181.2,163.8,175.3,161.6,172.4"/>
			<path class="st193" d="M153.8,179.1c-0.5,0.6-1.4,0.8-1.9,1.3c-1.2,4.1-4.3,6.3-5.4,10.4c1.4,1,1,3.7,2.4,4.8
				c1.4-1.1,3,0.2,4.3,0.4c4.7-2.1,7.1-6.4,10.2-10.2C159.2,184.5,157.3,181,153.8,179.1"/>
			<path class="st194" d="M161.4,189.9c-1.5,3.1-4.3,5-7.1,6.9c3.1,1.5,6.6,2.6,9.9,3.9c1.2-2.6,3.9-3.8,5.8-5.6
				C166.7,193.8,164.4,191.5,161.4,189.9"/>
			<path class="st195" d="M181.9,156.6c-3.7-1.8-7-3.9-10.8-5.6c-0.7,1.5-2,2.3-2.4,4.1c2,2.9,3.7,6.1,6.1,8.6
				C177.4,161.6,179.7,159.2,181.9,156.6"/>
			<path class="st98" d="M177.1,171.1c0.4-1.8-1.6-3.4-2.4-4.5c-0.7-1.1-1-2.5-2-2.6c-1.3,1.4-2.6,2.8-3.9,4.1
				c1.3,2,2.5,4.1,3.7,6.3C174.2,173.4,176.8,172.8,177.1,171.1"/>
			<path class="st35" d="M166.1,204.4c-0.3,0-0.3-0.3-0.7-0.2c-1.8,3.8-7.4,3.8-8.9,8c4,1.7,8.9,2.4,13.2,3.7
				C169.1,212.4,166.8,208.7,166.1,204.4"/>
			<path class="st94" d="M86.1,253c0.6,0.6,1.6,0.8,2.4,1.3c1.8,0.7,3.3,1.8,5.4,2.2c1.2-1.6,2.5-3.1,3.5-5
				c-4.7-1.8-9.6-2.6-13.8-4.3c-0.1,1.5-1,2.1-0.6,4.1C84.1,251.8,85,252.6,86.1,253"/>
			<path class="st94" d="M133.3,177H132c-1.1,0-2.2-0.1-3.2-0.2h-0.2c-1.5,0-3.1,0-3.9-0.2c-0.2,0-0.3,0.2-0.4,0.4
				c0.9,5,4,7.8,4.3,13.4c3.2-4,7.8-6.6,8.4-13.2C135.8,177,134.2,177,133.3,177"/>
			<path class="st192" d="M114.7,180.2c1.3,2.6,0.1,6.5,1.9,8.4c4.1,0,6.7,3.1,10.8,1.7c-0.6-5.2-3.3-8.4-4.5-13
				C119.8,177.2,117.1,179.1,114.7,180.2"/>
			<path class="st19" d="M112.1,216.5c0.9,2.6,3.7,3.2,4.1,6.3c1.2-0.7,1.8-2,2.8-2.8C118.3,217.1,115.3,215,112.1,216.5"/>
			<path class="st196" d="M113.4,195.3c2.6,3.4,4.7,7.3,8.9,9.1c0.6-4.6,3.8-7.5,4.1-11.7c-3.5-1.1-6.8-2.5-10.6-3.2
				C114.7,191.2,114.1,193.4,113.4,195.3"/>
			<path class="st197" d="M107.5,228.2c-0.7,2-2,3.4-2.4,5.6c3.7,1.1,7.3,3.5,10.8,4.1c-0.5-2.1,0.1-4,0.2-6
				C113.3,230.6,110.7,229.2,107.5,228.2"/>
			<path class="st94" d="M72.9,252.8c0-1.4-1.6-1.8-2.2-3.2c-3.2,1.8-7.4,2.7-9.7,5.4c2.9,0.7,4.9,2.3,8.4,2.4
				C70.4,256.1,72.9,254.6,72.9,252.8"/>
			<path class="st14" d="M63.7,237.9c-0.9-2.4-0.2-4.9-1.1-6.5c-1.3-2.2-5,0.8-8-0.4c0.2,2.5-2.3,3.8-2.8,6.3
				C56.3,237,59.5,238.2,63.7,237.9"/>
			<path class="st198" d="M68.6,267.3c-0.4,1.6-0.1,3.5-0.2,5.8c1.5,1.6,4.1,0.7,6.9,0.9c0.4-1.5,1.4-2.5,1.7-4.1
				C74.6,268.7,71.8,267.8,68.6,267.3"/>
			<path class="st76" d="M156.6,234.7c0.3,1-0.2,0.7-0.2,1.7c3,1.1,5.8,2.5,8.4,3.9c1.9-2.1,2.6-4.9,4.3-7.3c1.2-1.7,2.8-3.3,3-5.6
				c-2.4-0.7-3.8-2.4-6.9-2.4C162.8,228.7,160.7,232.7,156.6,234.7"/>
			<path class="st199" d="M150.3,244.8c1.1,1.3,2.3,2.6,3.5,3.9c1.9,0.4,4.6,1.7,6.3,3c3.3-2.2,5.8-5.2,7.3-9.1
				c-3.4-1.1-5.3-3.6-9.5-3.9C155.8,241.2,152.7,242.6,150.3,244.8"/>
			<path class="st35" d="M174.8,182.4c-2,0.8-4,1.7-5.8,2.6c1.4,1.8,3.4,3,5.4,4.1C174.2,186.6,177.1,183.8,174.8,182.4"/>
			<path class="st200" d="M43.6,231c0.5-2.7-1.1-5-1.7-7.3c-3.7,1-8,0.2-9.1,3.5C36.6,228.3,38.6,233.5,43.6,231"/>
			<path class="st201" d="M164.4,186.5c-0.4,1.2-1.5,1.7-1.9,2.8c3.5,1.5,6,5.2,10.4,5.2c0.2-1.5,0.7-2.6,1.1-3.9
				c-2.1-1.8-4.3-3.5-6.7-5C166.5,186.1,165.6,186.5,164.4,186.5"/>
			<path class="st4" d="M187.1,140.4c-0.1,0.7-0.7,1.1-0.9,1.7h1.1C187.2,141.6,187.6,140.6,187.1,140.4"/>
			<path class="st192" d="M178.4,172.6c-2.5,0.2-3,2.3-5.2,2.8c1.5,3.2,2.5,6.9,5.8,8.2c0.7,0.4,2.8,0.4,3.5,0
				c0.6-0.6-1-3.7-1.7-5.6C180,175.9,179.7,173.6,178.4,172.6"/>
			<path class="st202" d="M149.9,233.2c-0.8-0.5-1.5,0.4-2.4,0.4c-0.3,2.1-2,2.6-3,4.1c-1.5,2.3-1.8,5-3.2,6.9
				c0.8,0.7,1.7,1.3,2.8,1.7c4.7-2.3,9.3-4.5,12.8-8C154.7,236.4,150.4,236.7,149.9,233.2"/>
			<path class="st203" d="M150.6,259.8c-1.4-0.2-1.9-1.2-3.2-1.5c-1.3,1.1-1.9,2.8-2.2,5c0.5,0.4,1.8,0.1,2.4,0.4
				C148.4,262.3,150.3,261.8,150.6,259.8"/>
			<path class="st204" d="M133.9,167c1.4,3.3,2.9,6.3,4.1,9.7c1.2-0.2,0.9-1.4,1.3-2.2c1.1-1.8,3-3.2,3.5-5.6
				C140.2,167.9,137.1,167.5,133.9,167"/>
			<path class="st191" d="M151.2,261.9c2.7,1.4,4.2,3.9,7.1,5c2.6-3.4,4.9-7.1,7.6-10.4c-3.9-1.6-6-5-10.6-5.8
				C154,254.5,153,258.6,151.2,261.9"/>
			<path class="st50" d="M149.9,309.7c-0.2,1.2,1.3,3,1.7,4.3c0.9,2.5,1.5,5.3,3.5,5.8c2-1.6,5.4-1.9,8-3c-1.7-3.4-4-6.1-5.8-9.3
				C154.8,305.6,150.3,307.2,149.9,309.7"/>
			<path class="st205" d="M55.2,229.7c1.4,0.1,4.1,0.9,5.6-0.2c-0.8-2.5-1.5-5.1-2.8-7.1c-2.8-0.9-5.7-1.6-8.6-2.4
				c0,1.5,1.8,1.8,2.6,3C53.3,225,53.7,227.9,55.2,229.7"/>
			<path class="st76" d="M57.6,212c-3.8,1.3-6.9,3.4-9.9,5.4v1.7c3.3-0.3,7.6,1.5,11,2.4C60.5,218.7,58.4,214.8,57.6,212"/>
			<path class="st206" d="M71.9,182.4c4,0.7,7.7-0.3,9.9-1.9c-0.5-2.5-1.2-4.8-1.9-7.1c-3.9,0.1-6.7,1.2-10.2,1.7
				C70.3,177.6,70.9,180.2,71.9,182.4"/>
			<path class="st207" d="M78.6,246.8c-1.3-1.4-2.6-2.8-4.1-3.9c-1.2,1.7-2.4,3.5-3.5,5.4c0.7,1.5,2.3,2.1,2.6,3.9
				C75.6,250.7,77.2,248.8,78.6,246.8"/>
			<path class="st208" d="M43.8,166.4c1.6-0.7,3.6-1.1,5.6-1.5c0.4-1,0.1-2.4,0-3.5v-0.7c0.5-0.6,0.1-2.1,0.2-3
				c0.1-0.8,0.3-1.6,0.2-2.6c0.6-2-2.6-1.3-3.5-1.1h-1.7c-2.8,0.2-5.3,0.6-6.9,1.9C39.3,158.8,40.7,163.8,43.8,166.4"/>
			<path class="st209" d="M61.7,239c2.2,3.4,4.4,6.9,6.1,10.8c3.2-1.2,3.8-5,5.6-7.6c-0.7-0.8-1.1-1.9-1.9-2.6
				c-0.2-0.4-1.9-0.4-2.2,0C65.8,240.2,64.8,238.4,61.7,239"/>
			<path class="st173" d="M50.6,160.8c-0.2,0.7,0,0.6-0.1,1.3v3c0.7,0.6,1.5,1.1,2.2,1.7c3.3-1.9,6.4-4,9.7-5.8
				c-1.5-3.4-3.1-6.7-5-9.7c-2.7,0.7-6,0.9-6.7,3.7v2.2c0.1,0.7,0,1.2,0,1.7C50.6,159.3,50.7,160.1,50.6,160.8"/>
			<path class="st175" d="M68.8,154.7c-1.8-1.8-3-4.2-5.2-5.6c-1.5,0.8-3.2,1.4-5,1.9c1.5,2.8,2.3,6.2,4.5,8.2
				C65.1,157.7,67.4,156.6,68.8,154.7"/>
			<path class="st12" d="M73.2,226.9c-0.8-2.9-0.6-6.1-1.5-8.4c-1.6,0-2.8,0.4-4.5,0.2c-0.7,0.1-1.9-0.3-2.2,0.2
				c-1.6,0-3.1,0.2-4.5,0.4c-1.7,3.6,0.6,8.1,2.4,10.8C66.3,229.1,69.6,227.9,73.2,226.9"/>
			<path class="st210" d="M62.8,194.7c-0.4-3.6-2.4-7.2-3-10.8c-1-0.6-2.2-0.1-3.9-0.2c-1,2.6-4.3,9.1-2.6,11.2
				C56.4,194.8,60.1,195.2,62.8,194.7"/>
			<path class="st211" d="M68.2,238.6c1.4-0.1,3.5,0.3,4.5-0.2c1.1-0.4,2.3-0.6,3.2-1.1c-1.1-3.1-1.4-7-3-9.5c-3,1.1-6.1,2.3-9.5,3
				c0.4,2.7,0.7,5.5,1.7,7.6C66.1,238.6,67,238.2,68.2,238.6"/>
			<path class="st212" d="M46.1,204.6c-4,0.8-6.7,3.1-6.9,7.1c2.7,1.7,5.5,3.3,8.6,4.5C49.4,212.7,45.5,209.4,46.1,204.6"/>
			<path class="st213" d="M58.7,210.3c-1.4-3.6-2.7-7.4-5.2-9.9c-1.8,1.5-4,2.5-6,3.7c-0.6,4.1,1.1,7.6,2.2,10.8
				C52.5,213.2,55.7,211.8,58.7,210.3"/>
			<path class="st128" d="M64.5,218c0.9-0.1,2.4,0.3,3-0.2c1.4-0.1,2.6-0.2,3.9-0.4v-0.2c0.5-0.4,0.1-1.6,0.2-2.4
				c0.3-2.2,0.9-4.2,1.5-6.1c-1.4,0.1-2.8-0.9-4.3-0.6c-0.9,0.1-1.5,1.1-2.6,1.5c-2.9,1.1-6.3,0.1-7.3,2.4c1,1.7,1.1,4.4,1.9,6.3
				C62.1,218.3,63.1,217.9,64.5,218"/>
			<path class="st214" d="M35.6,165.1c1.1-2.1,2.9-4.3,1.9-7.1c-2-0.4-5.7-1.9-7.8-1.7c-3,0.3-4.4,6.6-4.1,9.5
				C28.4,165.8,32.4,165.4,35.6,165.1"/>
			<path class="st215" d="M67.1,164.9c-0.9,1.7,0.4,3.3,0,5.6c0.1,0.8-0.3,2.2,0.2,2.6c0.1,0.5,0.3,0.9,0.4,1.3
				c4.1-0.6,7.7-1.7,11.9-2.2c-0.6-3.6-1.4-7-2.2-10.4C72.9,161.4,70.9,166.6,67.1,164.9"/>
			<path class="st216" d="M15.4,303.2c-0.6,3.3-3.7,10.1-2.6,12.5c2.9,1.1,5.1-1,7.3-2.4c1.8-1.1,3.9-1.8,4.7-3.2
				C22.4,307.2,19.4,304.7,15.4,303.2"/>
			<path class="st217" d="M26.9,261.9c3.2,0.9,4.2,3.9,7.6,4.5c1.9-2.1,2.3-5.6,3.2-8.6C33.4,257.7,30.3,260.4,26.9,261.9"/>
			<path class="st218" d="M20.4,283.5c-1.1,1.6-3,2.4-3.7,4.3c3.2,1.2,5.3,3.5,8.4,4.8c0.5-0.3,0.8-0.7,1.3-1.1
				c-1.1-2.7-2-5.6-3-8.4C22.4,283.2,21.8,283.7,20.4,283.5"/>
			<path class="st219" d="M29.9,251.3c1.3,1.3,5.3,5.3,7.4,5.4c1.7,0.1,2.8-1.5,4.8-1.7c0.6-3.6-1.2-6.3-2.4-8.6
				C35.6,247.2,33.3,249.8,29.9,251.3"/>
			<path class="st220" d="M42.5,239.9c-0.7-1.1-1.9-1.7-2.6-2.8c-0.8-0.7-1.6-2.5-2.8-2.2c-1,1.3-2.1,2.5-3.2,3.7
				c1,2.6,2.2,5,3.5,7.3c2.7-0.9,5.2-2,7.1-3.7C44.1,241.1,43,240.8,42.5,239.9"/>
			<path class="st221" d="M15.7,239c1.3-0.8,2.9-1.8,4.8-3.2c1.6-1.2,5-2.9,4.1-5.2c-3.3-1.7-7-3.1-9.5-5.6c-0.8,0.8-2.6,1-2.8,2.4
				c-0.2,1,1.4,2.8,1.5,4.8C13.9,234.7,14.6,237.8,15.7,239"/>
			<path class="st44" d="M32.1,189.9c1.3-2.5,4.9-2.6,6-5.2c-2.8-2.5-4.3-6.4-8.4-7.6c-2.5,2.8-5.6,5.1-7.3,8.6
				c2.3,1.8,4.8,3.2,7.1,5C30.2,191.1,30.9,189.8,32.1,189.9"/>
			<path class="st211" d="M10.3,326.1c-0.5,0.4-0.1,1.8-0.2,2.6c-0.3,2.1-0.9,4.9-0.9,6.7c0.7-0.1,1,0.2,1.5,0.2
				c1.1,0.4,3.7,0.4,4.8,0c0.8-0.1,1.3-0.6,2-0.9c-0.1-2.6-1.4-5.8-1.7-8.9C13.9,326,11.7,325.7,10.3,326.1"/>
			<path class="st222" d="M15.7,254.1c2-2.5,5.6-3.4,7.4-6.1c-2.7-2.8-7.2-3.8-8.4-8c-0.1,0.3-0.2,0.5-0.4,0.7
				c-1.2,1-2.3,2.1-3.2,3.2c-0.7,1-1.7,1.6-2.4,2.6c0,0.2-0.2,0.3-0.4,0.4C10.3,249.7,12.6,252.3,15.7,254.1"/>
			<path class="st223" d="M19.8,197.7c1.9,1.3,3.9,2.7,6.3,3.5c-1.5-3.8,2.6-5.4,2.8-8.9c-2.4-2-4.9-4-7.6-5.8
				c-2,2.5-4.4,4.7-6.7,6.9C15.9,195.2,17.9,196.5,19.8,197.7"/>
			<path class="st148" d="M14.6,302.8c-3.4-2.4-4.8-6.7-9.1-8.2c-1.1,1.4-1.5,3.5-2.4,5.2c3.4,2.8,6.3,6.1,9.9,8.6
				C13.5,306.5,14.1,304.6,14.6,302.8"/>
			<path class="st224" d="M96.5,231.4c-0.4,1.1-0.4,3.7,0,4.8c1.1,0.5,3.4-0.1,4.5,0.4c0.4-1.5,1.3-2.5,2.8-2.8
				c1.1-2.2,2.1-4.4,3-6.7c-3.7-0.5-6.9-1.9-10.4-1.9c0-0.1-0.4,4.6,0,5.6C96.8,230.8,96.8,231.4,96.5,231.4"/>
			<path class="st92" d="M113.8,251.8c-2.3,1.2-4.4,0-6.3-0.9c2.4-3.9,5.1-7.6,8.2-10.8c0.8,0.1,1.5,0.4,1.7,1.1
				C116.2,244.6,115,248.2,113.8,251.8"/>
			<path class="st92" d="M289.8,305.6c0.7-1.6,0.4-4,1.5-5.2c4.3-0.1,9-2.1,9.1,3c-3.3,3-6.7,5.8-10.8,8V309
				C290,308.3,289.6,306.7,289.8,305.6"/>
			<path class="st109" d="M222.3,312.7c0-2-0.8-3.2-1.3-4.8c2.9-0.1,6.4-0.6,8.9-0.4c0.2,2.5,1.7,5.7,1.1,7.6
				c-0.6,0.4-0.7,1.2-1.1,1.7c-3.1,0.6-4.9,2.4-7.1,3.9c0.2-0.6-0.3-0.6-0.2-1.1c0.1-0.7-0.1-1-0.2-1.5v-2.4
				C222.7,315.2,222.7,313.2,222.3,312.7"/>
			<path class="st225" d="M84,223.9v-2.2v-2.8c-0.9,0.1-2.3-0.3-2.8,0.2h-1.7c-1.5,0.1-3.6-0.3-4.8,0.2c0,0.5-0.9,0.1-1.3,0.2
				c-0.4,3.4,0.9,6.8,1.5,9.9c2.1-1.1,4.8-1.5,6.9-2.6c0.7-0.1,1.9,0.3,2.2-0.2h0.2C84,225.8,84.5,224.4,84,223.9"/>
			<path class="st94" d="M152.9,209.8c-0.1-5.9-3.4-10.6-6.3-14.5c-1.9,0.7-3.4,1.6-5,2.6h-0.2v3.9c0.2,0.7-0.2,0.8-0.2,1.3
				C145,205.5,149.4,207.3,152.9,209.8"/>
			<path class="st226" d="M9,217.2c1.4-0.5,4,0.1,5.4-0.4c3,1.4,1.7,7.5-0.9,7.8c-2.4,0.2-3.1-3.6-5-4.5C8.7,219.1,9,218.3,9,217.2"
				/>
			<path class="st130" d="M6.6,230.6c1.7-0.6,2.3-2.3,4.5-2.4c1.1,0.8,1.2,2.5,1.5,4.1c-2.1,1.9-3.9,4.2-7.1,5
				C5.8,235,6.3,232.9,6.6,230.6"/>
			<path class="st227" d="M66.9,250.2c-3.2,1.1-5.3,3.3-8.4,4.5c-0.6-1.9-2.2-2.7-3.2-4.1c1.5-3.7,4.9-5.3,7.1-8.2
				C64.5,244.5,65.5,247.6,66.9,250.2"/>
			<path class="st228" d="M109.3,253.5c-0.9,2.7-2.6,4.6-3.9,6.9c-3.7-0.9-6.3-2.8-9.9-3.7c0.9-2.9,3-4.6,4.8-6.7
				C103.4,251,106.6,252,109.3,253.5"/>
			<path class="st229" d="M27.1,251.3c2.3,1.2,5.2,3.7,7.6,5.6c-2.9,1.2-5.4,2.7-8.2,3.9c-0.5-0.7-1.4-0.9-1.9-1.5
				C25.9,257.1,26.2,254,27.1,251.3"/>
			<path class="st230" d="M56.3,262.8c0.7-2.1,1.4-4.2,1.7-6.7c3.2-1.1,7.3,1.8,10.6,2.6c-1.2,2.4-2.6,4.6-4.1,6.7
				c-2.4,0.1-4.2,0.9-6.3,1.3C57.7,265.3,56.8,264.3,56.3,262.8"/>
			<path class="st231" d="M79.4,257.2c-0.7,4-1.5,7.9-2.6,11.5c-3.5-1.3-7.7-1.8-10.8-3.5c1.9-3.5,3.8-7,6.7-9.5
				C74.9,255.4,77.3,256.7,79.4,257.2"/>
			<path class="st232" d="M32.1,294.3c-0.1-0.9,0.6-1,0.4-1.9c-1-0.4-1.9-1-2.8-1.5c-2.2,1.2-4.3,2.4-5.6,4.3
				c2.3,2.1,3.5,5.3,6.1,7.1c0.5-1.9,1.2-3.5,1.7-5.4C32.4,296.5,32,295.1,32.1,294.3"/>
			<path class="st233" d="M186.9,306.2c-0.1-1,0.3-0.4,0.6-0.2c0.8,1,1.8,2,2.8,2.8v0.7c-0.2,1.5-0.2,3.3-0.9,4.3
				C188.3,311.6,187.4,309,186.9,306.2"/>
			<path class="st234" d="M22.4,336.3c-0.5-0.7-1-1.5-1.1-2.6c0.6-1.1,2.5-2.4,1.9,0.4C23.1,335,22.7,335.6,22.4,336.3"/>
			<path class="st76" d="M267.5,184.1c0.2-0.7,1.5-0.4,2.4-0.4c0.3,0.5,1.5,0.1,2.2,0.2h1.3c0.1,0.3-0.2,0.4-0.2,0.6
				c0.5-0.1,0.8,0,1.1,0.2v1.1c-1.5,0.3-1.3,1.6-2.6,2.4c0.1,0.4,0.5,0.5,0.4,1.1c-0.6,0.1-1.6-0.3-1.3,0.6
				c-1.5-0.3-1.8,0.5-2.6,0.9c-1.1-1.2-1.9-2.6-2.6-4.1C266.2,185.8,266.9,185,267.5,184.1"/>
			<path class="st76" d="M181.7,194.7c-2.5-0.5-5-0.9-7.1-1.7c1.6-2.4,0-9.1,4.3-8.2c0.8,0.4,3.1,0.4,3.9,0c0.5,0.1,0.5-0.4,1.1-0.2
				C183.1,187.9,182.5,191.4,181.7,194.7"/>
			<path class="st76" d="M243.5,188.6c2.3-1,4.6-2,6.9-3c0.6,0.7,1.1,1.5,1.3,2.6c-1.1,1.2-2.5,2.2-3.9,3
				C246.4,190.3,244.6,189.8,243.5,188.6"/>
			<path class="st76" d="M233.3,193.8c3-1.5,5.8-3.1,8.9-4.5c0.9,0.7,2.4,1,2.8,2.2c-4.3,2.3-5.3,7.8-8.4,11.2
				c-1.5-1.3-3.4-2.3-5-3.5C232.1,197.3,232.8,195.7,233.3,193.8"/>
			<path class="st76" d="M238.1,202.5c2.7-3.5,4.3-9.2,8.4-10.6c3.1,1.2,3.6,5.1,6.3,6.7c-1.9,1.5-3.3,3.4-4.1,6.1
				c-2.6-0.9-5.4-2.3-8.9-1.7C239.3,202.7,238,203.3,238.1,202.5"/>
			<path class="st235" d="M63,196.2c-0.7-1.4-4-0.3-5.8-0.6v0.2h-3.2c0.4,5.3,4,9.1,5.8,13.6c0.7-0.4,2-0.2,2.8-0.4
				c0.7-0.1,2,0.3,2.4-0.2c0.6-1,2.3-0.9,2.8-1.9C66.3,203.2,64.6,199.8,63,196.2"/>
			<path class="st236" d="M149.3,196.2c0.2-0.1,0.4-0.2,0.7-0.2c1.7,0.3,3,1.8,4.8,2.6c3.4,1.5,8,1.9,9.9,4.8
				c-1.2,3.1-5,3.6-7.4,5.6c-1,0.8-1,2-2.2,2.6c-1.5-2.1-1.2-4.7-1.7-7.1C152.7,201.3,149.7,199.1,149.3,196.2"/>
			<path class="st76" d="M34.9,213.9v-1.3c3.5-2.5,8.3,3.6,11.9,4.3c-0.2,0.8-0.3,1.7-0.2,2.8c-2.8,2.5-7.2,3.5-11.9,4.1
				c-0.7-2.3,0.2-4.8,0-7.3C35.2,216.1,34.8,214.7,34.9,213.9"/>
			<path class="st76" d="M53.7,232.1c-0.3-0.6-0.7-1.1-0.9-1.7c-0.6,0.1-1.7-0.3-1.9,0.2h-0.2c0.1,1.3-0.3,3.2,0.2,4.1v1.5
				C52,235,52.6,233.3,53.7,232.1"/>
			<path class="st76" d="M47.4,230.6c-0.5-0.1-8.6,2.5-9.3,3.2c0,0,0,0.2,0,0.2c0,0.7,1.5,1.7,2.2,2.4c0.2,0,0.2,0.1,0.2,0.2
				c0.1,0.3,0.4,0.3,0.4,0.6c0.6,0.8,1.4,1.5,2.2,2.2c0.6,0.8,1.3,1.5,2.2,2.2v-0.4c-0.1-4.1,1.9-6.2,2.2-9.9
				C47.4,231.2,47.5,230.6,47.4,230.6"/>
			<path class="st237" d="M299.3,237.5c-0.1-0.4,0.3-1.4-0.2-1.5c-2.7,1.5-4.9,3.4-7.6,5c1.9,0.5,6.5,1.6,7.6-0.2
				C299.6,240.1,299.1,238.5,299.3,237.5"/>
			<path class="st238" d="M218,237.1c1.5,0.5,3.2,1,4.1-0.4c1.7,1.1,3.5,2.3,5,3.7c0,0,0,0.2,0,0.2c-2.5,1.8-6.7,4.4-11,5.2
				c0-1.2-0.8-1.6-1.1-2.6C216.7,241.8,217.6,239.7,218,237.1"/>
			<path class="st103" d="M259.9,272.9c1.4-2.6,3.1-4.8,4.8-7.1c2.4,0.4,5.3,0.4,7.1,1.3c0.1,1.4-0.6,2-0.4,3.5
				c-0.4,0.6-0.4,2.7,0,3.2c-0.1,0.5,0.4,0.5,0.2,1.1v0.7c-2,0.6-5.5-0.2-7.6,0.4h-0.4c-1.1-0.1-2.5,0.2-3.2-0.2
				C260.2,274.9,260.3,273.7,259.9,272.9"/>
			<path class="st239" d="M306.4,242.9c1.3-1.1,3.2-1.7,3.9-3.5c-1.4-1-1.9-3-3.5-3.9C304.4,237.8,303.3,240.4,306.4,242.9"/>
			<path class="st76" d="M324.6,266.9c1.1-0.9,2.1-1.9,3-3c2.3-1.8,5.4-3,7.8-4.8c-2.7-0.7-4.7-2.1-6.3-3.9c-2.8,2-5.6,4-8.4,6.1
				c0.7,2.7,1.8,4.8,3.2,6.7C324.1,267.6,324.4,267.3,324.6,266.9"/>
			<path class="st240" d="M332.3,256.5c0.9,0.7,1.9,1.4,3.7,1.3c1.2-0.1,2.9,0.3,3.7-0.2c0-1-1.6-2.3-1.9-3.7
				C335.7,254.5,333.4,254.9,332.3,256.5"/>
			<path class="st115" d="M285.2,265.6c2.1-2,4.9-3.3,6.7-5.6c-1-1.6-0.3-3.8-1.5-5c-4.8,0.9-8.2,3-13,3.9
				C279.1,262.1,282.2,263.8,285.2,265.6"/>
			<path class="st76" d="M269,277h-3.2l-1.6,0.2c-0.7,0.1-1.7,0-2.8,0h-0.6c0,3,1.2,5.3,1.3,8.6h0.4c1.7-0.1,3.9,0.3,5.2-0.2
				c2.5,0,4.6-0.5,6.3-1.3c-0.5-2.7-1.6-4.7-2.2-7.3H269z"/>
			<path class="st241" d="M262.1,287.2v3.2c0.9,0.1,1.6,0.6,2.6,0.7c0.1-1.4,0.6-2.4,0.4-4.1C264.1,287.1,262.7,286.8,262.1,287.2"
				/>
			<path class="st45" d="M323.9,269.7c-0.4,1.7,0.1,4.6,0.9,5.4c0.7,0.8,2,0.6,3,1.1c1.9,0.9,2.8,2.5,4.1,3.2c2-1.9,2.1-5.7,3.2-8.4
				c-1.2-2.6-1.8-5.7-2.4-8.9C330.1,263.1,324.4,267.7,323.9,269.7"/>
			<path class="st242" d="M331,287c-0.1,0.3-0.3,0.4-0.6,0.4c-1,3.8-3.7,6-5.2,9.3c2.4,0.7,4.1,2.3,6.7,2.8c1.7-2.3,2.5-5.6,4.5-7.6
				c-0.6-0.8,0.4-1.9,0.4-2.8C334.7,288.7,333.2,287.5,331,287"/>
			<path class="st14" d="M336.4,222.6c-2.2,0.2-5.5,1.2-7.1,2.6c2.9,1.7,5.4,3.7,8.2,5.4C336.9,228.1,337.2,224.9,336.4,222.6"/>
			<path class="st20" d="M342.5,244.8v2.4h0.2c1,0.4,3.5,0.4,4.5,0c1.5,0,3.2-0.3,4.1-0.2c0.7-1.5,0.8-3.7,1.1-5.6
				c0.4-0.9,0.4-3.4,0-4.3c-0.2-0.5-0.1-1.3-0.4-1.7c-0.3,0-0.5-0.1-0.6-0.2c-0.3-0.5-1.5-0.1-2.2-0.2h-2.8
				c-1.6,0.1-3.8-0.3-4.8,0.4c0.2,1.8,0.9,3.1,0.9,5.2C342.1,241.5,342.1,243.9,342.5,244.8"/>
			<path class="st76" d="M344,268.8c-1.4-3-1-7.9-3.5-9.9c-0.6-0.4-3.9-0.4-3.5,0.2c-0.4,1.7-2.8,1.4-3.5,2.8
				c1.5,1.9,0.9,9.3,3.7,9.7C338.8,271.9,341.9,268.5,344,268.8"/>
			<path class="st76" d="M343.8,275.7c-3-0.8-5.2-2.3-7.8-3.5c-1.1,2.7-1.3,6.2-3.2,8c2.6,1,4.4,2.8,7.6,3.2
				C342,281.5,342.8,278.5,343.8,275.7"/>
			<path class="st21" d="M283.3,272.5c0.6-1.3,1.7-2.1,2.6-3c-0.9-3.9-5-4.6-7.4-6.9c-1.4-1.4-1.8-3.7-4.1-4.1
				c-1.1,5-2.2,9.7-2,15.3c1.9-0.1,3.4-0.8,5.6-0.6c0.8-0.1,2.2,0.3,2.6-0.2C281.4,272.6,282.6,272.8,283.3,272.5"/>
			<path class="st243" d="M347.3,269c-2.2,0.8-6.5,1.4-8.2,3.5c2.8,1.1,4.9,2.9,8.9,2.8C347.8,273.2,346.9,271,347.3,269"/>
			<path class="st244" d="M333,329.6c1.9,1.7,2.1,5.1,3.2,7.6c3.7-2,7.6-3.9,9.5-7.8c-3.3-1.4-6.8-2.7-9.7-4.5
				C335.2,326.6,334,328,333,329.6"/>
			<path class="st245" d="M350.9,248.3c-2.9-0.2-6.9,0.3-10.1,0.2c-1.5,0.4-2.7,0.5-3.5,0.9c-0.1,0.5,0,0.8,0.2,1.1
				c0.5,1,0.6,1.4,1.3,2.4c0.2,0.4,0.5,0.6,0.5,0.9c0.4,0.7,0.8,1.5,1.2,2.1c0.9,1.8,2.2,3.3,3,5.2c3.1-3.1,8.1-4.2,10.6-7.8
				C352.9,251.8,353,248.9,350.9,248.3"/>
			<path class="st246" d="M353.7,249.3c0.5,1.8,1.4,3.2,2.3,4.5c1.3-1,3.2-1.5,4-2.9C358,250.2,356,249.5,353.7,249.3"/>
			<path class="st37" d="M292.6,261.5c-2.4,1.7-5.1,3.2-6.7,5.6c2,3.4,6.1-1.2,8.9-1.7C294.2,263.9,293.9,262.1,292.6,261.5"/>
			<path class="st242" d="M308.6,273.8c-2.5,1.7-4.2,4.2-7.1,5.4c2.7,3,7.9,3.5,11.5,5.6c1.5-0.8,2.3-2.3,3.2-3.7
				C313.4,278.9,311.4,276,308.6,273.8"/>
			<path class="st247" d="M302.5,250.7c0.8,0.1,2.7-2.8,3.9-3.7c0.8-0.6,1.4-0.4,1.7-1.3c-1.9-1.6-3.8-3.1-5-5.4
				c-1.1,0.4-2.3,0.8-3,1.5c-0.7,0.9-1.7,2.8-0.7,4.1C300,247,301.9,250.6,302.5,250.7"/>
			<path class="st98" d="M337.3,310.5c0-4.1-2.1-6.2-4.3-8.2c-3.1,2.7-5.2,6.3-7.8,9.5c1.4,0.8,2.2,2.1,3.7,2.8
				C332,313.6,334.2,311.6,337.3,310.5"/>
			<path class="st248" d="M311.8,271.9c-0.6-0.3-3,1.5-1.3,2.2c2.4,1.8,4.1,4.4,6.5,6.3C315.4,277.2,314,273.8,311.8,271.9"/>
			<path class="st249" d="M334.7,282.4c-4.3-1-5.2-5.4-10.2-5.8c-0.8,2.1-2.8,3-3,5.6c2.4,1.8,5.1,3.2,7.6,5
				C330.9,285.6,333.4,284.6,334.7,282.4"/>
			<path class="st153" d="M322.8,271c-2.5,1-6.1,0.8-8.4,1.9c1.6,2.7,3.1,5.4,4.5,8.2C322.7,279.6,324,275.9,322.8,271"/>
			<path class="st101" d="M339.7,284.6c-1.8,0-2.3-1.1-3.9-1.3c-1.2,0.6-1.9,1.7-2.8,2.6c-0.2,0-0.2,0.2-0.2,0.4
				c1.7,0.6,2.9,1.6,5,1.7C338.1,286.6,339.2,285.9,339.7,284.6"/>
			<path class="st250" d="M214.1,280.7c-0.2,2.7-0.9,4.8-1.7,6.9c-4.1-0.9-7.5-2.6-10.2-5c1.1-2.7,2.9-4.6,4.1-7.1
				C206.6,275.6,213.5,280.1,214.1,280.7"/>
			<path class="st92" d="M221,321.6c0.5-0.7,0.1-2.2,0.2-3.2v-0.6c0.4-0.7,0.4-2.9,0-3.7c-0.1-2.3-0.6-4.3-1.5-5.8
				c-4.4,0.2-7.6,1.7-11.7,2.4c-0.6,0.1-1.9-0.3-2.2,0.2c-0.5-0.1-0.8,0-1.1,0.2c0,0.8,0,1.6,0.2,2.2c4.5,3.8,10,6.4,16,8.6V321.6z"
				/>
			<path class="st91" d="M211.5,253.7c-2.9-0.7-7.5,4.2-9.3,5.6c1.9,2.2,2.5,5.7,5,7.3c3.4-0.4,3.9-3.8,6.9-4.5
				C215.1,259.7,213.3,254.2,211.5,253.7"/>
			<path class="st251" d="M224.3,252c-0.4-0.6,0.3-1.1-0.4-1.3c-3,1.5-7.1,3.1-10.4,3c0.1,1.1,0.8,1.7,1.1,2.6
				c3.1-0.7,5.8-1.9,9.5-1.9v-0.2C224.5,253.8,224.1,252.6,224.3,252"/>
			<path class="st252" d="M218.4,270.6c0.9-0.6,2.3-0.6,2.6-1.7c-2.9-0.2-4.8-5.2-6.5-5.4c-1.8-0.2-3,2.2-4.1,3.7
				c1.3,2.1,2.2,4.6,3,7.1c1.3-0.1,1.9-1,2.8-1.5C217.1,272.1,217.8,271.4,218.4,270.6"/>
			<path class="st44" d="M201.8,271.6c-1.7,1.9-4,3.3-6.9,4.1c-0.2,3.5,1.7,5.7,1.1,8.9c0.9,0.2,1.3,1,2.2,1.3
				c2.6-3.6,5.2-7.2,7.3-11.2C204.5,273.4,203.2,272.4,201.8,271.6"/>
			<path class="st87" d="M200.9,284c-0.9,1.3-1.9,2.4-2.6,3.9c1.6,0.5,2.4,1.8,3.9,2.4c1.3-1,1.5-3.1,2.4-4.5
				C203.2,285.3,202.6,284,200.9,284"/>
			<path class="st253" d="M210.2,297.1c1.1,0.7,1.7,1.9,3.2,2.2c1.2-3.2,2.5-6.1,3.7-9.3c-3.1-2.2-8.3-0.9-11.7-3.5
				c-0.6,1.6-1.3,3.2-2.2,4.5c1.8,1.1,3.6,2.1,4.8,3.9C208.7,295.8,209.4,296.5,210.2,297.1"/>
			<path class="st76" d="M197.2,288.5c-3.3,2.1-4.1,6.7-6.7,9.5c1.1,3.1,5.3,3.1,7.8,4.8c1.7-3.3,3.5-6.4,4.5-10.4
				C201.1,291,199.3,289.6,197.2,288.5"/>
			<path class="st254" d="M203.1,271c3.1,2.5,6.4,4.8,9.9,6.9c-0.9-4-1.9-7.9-4.1-10.6C206.4,267.9,204.2,269,203.1,271"/>
			<path class="st218" d="M3.6,284.2c3.3,1.2,6.2,2.8,9.3,4.3c-1.2,2.6-3.6,4.2-5.8,5.8c-1.1-0.7-2.7-1-3-2.6
				c-0.7-0.5-0.4-1.9-0.4-3v-2.6V284.2z"/>
			<path class="st76" d="M266.6,297.1c0.2-1.2-0.2-1.8-0.4-2.6c6.5,1.5,13.1,2.9,19,5c-1.1,3.8-4.8,5.1-6.3,8.4
				c-3.9-1.3-8-2.4-12.1-3.5c-0.6-1.2,0.2-3.3-0.2-4.3V297.1z"/>
			<path class="st255" d="M1.6,309.9C1.4,312,1,314,1,316.4c-0.4,0.5-0.4,2.5,0,3v0.4c0.5,0.5,0.1,1.9,0.2,2.8
				c-0.1,0.9-0.1,1.8,0.6,1.9c0.7,0.1,1.2,0.4,1.9,0.4c0.3-0.4,0.5-1.1,1.1-1.3c0.8-0.6,1.5-1.3,2.2-2.2c0.6-0.9,1.6-1.5,2.2-2.4
				c0-0.2,0.1-0.2,0.2-0.2c0.8-1,1.6-1.8,2.6-2.6C10.5,313.6,4.4,311.5,1.6,309.9"/>
			<path class="st256" d="M24.7,323.3c-2.7-0.9-4.9-4.1-8.7-4.8c-0.1-0.5-0.3-1-0.2-1.7c2.9-1.3,5.2-3.2,8.2-4.3
				c0.3,1.8,0.9,3.3,2.4,3.9C26.3,319.1,25,320.6,24.7,323.3"/>
			<path class="st76" d="M24.3,330.7c-2.5,0.4-3,2.7-6,2.6c-1.3-3.8-1.8-9.1-1.3-13.6c3,1.4,5.3,3.4,7.8,5.2v0.4
				c-0.4,0.5-0.4,2.5,0,3C24.8,329.3,24.6,330,24.3,330.7"/>
			<path class="st76" d="M17.4,341.2c0.3-2.4-0.1-5.6,1.3-6.9h1.1c0.9,0.8,1.3,2,1.7,3.2c-0.5,1.2-1.9,0.7-2.8,1.5
				C18.1,339.6,18.7,341.1,17.4,341.2"/>
			<path class="st218" d="M15.7,336.5H17c-0.4,1.5-0.3,3.5-0.6,5c-2.4-0.1-3.9,0.7-5.8,1.1c0.2-0.6-0.4-0.4-0.4-0.9
				c0.6-1.5-0.1-4.3,1.1-5.2c0.8,0.1,1.4,0.3,2.4,0.2C14.2,336.6,15.4,337,15.7,336.5"/>
			<path class="st257" d="M348.8,281.2c-1.2,0.4-3.3-1.7-5-2.4c0.8-0.7,0.9-2,1.7-2.6c1.2,1.1,4.9-0.3,4.8,2.2
				C349.9,279.4,349.1,280.1,348.8,281.2"/>
		</g>
		<g>
			<path class="st258" d="M161.6,52.2c3.6-2.3,6.6-5.9,8.2-7.7c0.2-0.2,0.3-0.1,0.2,0.1c-4,8.7,1.1,12.2,7.4,7.9
				c5-3.7,8.2-9.1,8.2-9.1l0-1.7c0,0-4.7,6.9-9,9.5c-2.9,1.7-4.1,1-3.4-2.7c0.4-1.8,1.6-4.5,2.9-6.8c5.7-10.3,6.8-12.4,6.8-12.4
				h-9.4l-1.1,2.3h4l-4,8.1c-6.9,8.6-12.2,13-16,12.3c-2.7-0.5-4-4.1-2.8-9.3c1.8-0.2,10-1.6,13.5-6.1c4.6-5.9-0.9-10.7-8.6-6.3
				c-4.3,2.4-7.3,6-9.4,11.1c-1.7-0.2-2.7-0.9-2.8-2.8c-0.1-4,3.1-10,3.1-10s-0.4-0.1-2.4,0.1c-1.6,0.1-2,0.3-3,1.2
				c-2.3,1.9-5.4,5-9.8,11.4c-0.2,0.3-0.4,0.1-0.2-0.2c2.1-3.7,6.4-11.8,6.4-11.8h-9.1l-1.1,2.3h4l-9.8,19.9h-2.5l-1.1,2.3h9.7
				l1.2-2.3c0,0-1.9,0-2.6,0C135,41,139.8,36,142.7,32.9c-0.2,0.5-4.1,10.9,5.9,10C145.4,53.9,152.9,57.9,161.6,52.2z M159.9,31.6
				c3-2.7,5.8-1.9,4.4,1.7c-2.5,6.5-10.4,7.8-10.4,7.8S155.4,35.7,159.9,31.6z"/>
			<path class="st258" d="M83.4,30.5c11.9,0,13.8-11.6,11.3-19.5c-2,1.8-5.1,3.6-7.9,4.7c3.2,3.2,4.3,10.2-1,12.2
				c-9.3,3.5-18.4-13.9-2-20.6c2.9-1.2,8.2-2.8,25.8-2.4c25.2,0.6,42,2.3,51.6,2c6.2-0.4,10.5-1.7,13.7-4.9
				c-3.9,0.9-7.1,1.2-14.6,0.8C120.9,0.9,90-3.6,78,5.4C66.5,13.9,71.4,30.5,83.4,30.5z"/>
			<path class="st258" d="M130.1,21c-2.6-0.9-9.6,2-12.6,12.9c-1.1,0.3-4.9,1-6.4,1.1C119.6,19.4,123.8,13,135,8.2l-0.3-1
				c-10.2,2.6-17.2,5.9-24.4,17.5c-1.7,2.7-5.1,8.5-6.3,10.8c-3.2,0.3-8.4,0.7-13.1,1.4c-12.7,2-16.7,9-16.7,14
				c0,6.3,3.7,10.5,3.7,10.5s0.8,0,1.4,0c-5.2-10.7,2.3-18.6,12-21.2c2.4-0.9,6.1-1.5,11.2-2.3c-7.4,13.2-18.3,32.5-25.4,40.2
				c-11.1,12-21.3,1-18.2-7.2c3.5-9.3,15.3-6.3,15.3-6.3s0.7-0.5,1.3-0.9C64.5,59.9,52.1,63,52.1,74.1c0,6.6,6,10.9,11.8,11.4
				c11.9,1.1,21-6.6,31.7-23.5c6.8-10.7,10.3-17.1,14.4-24.9c2.5-0.3,5-0.8,7-1.3c-1.1,5.3-1,9.1-1,9.1l1.8-0.7c0,0,0.1-4.9,1.1-8.9
				C130.2,31.8,133.1,22.1,130.1,21z M119.5,33.3c1.4-5.2,5.2-9.4,7.1-8.6C128.6,25.6,125.1,31.5,119.5,33.3z"/>
			<path class="st258" d="M181.5,24.4c1.2,0.9,3.1,0.3,4.2-1.3c1.1-1.6,1-3.6-0.3-4.4c-1.2-0.9-3.1-0.3-4.2,1.3
				C180.2,21.5,180.3,23.5,181.5,24.4z"/>
			<path class="st258" d="M249.2,13.3c-3.6-5.5-8.8-7.4-13.8-7.4c-12.2-0.4-23,9.4-36,25.8c0,0-1.6,2-4.5,5.8
				c-0.8-1.7-1.5-3-1.8-3.7c-0.6-1.2,0-2.1,1.4-2.1c0.5,0,1,0,1,0l1.1-2.3h-11.2l-1.1,2.3c0.6,0,1.1,0,1.7,0c1.2,0,1.8,0,2.5,1.5
				c0.6,1.3,2.1,4.5,3.7,7.7c-1.5,1.9-3.1,4-5,6.4c-12.1,15.4-23.9,27.2-34.9,27.3c-4.1,0-8.4-1.6-11.8-5.1
				c-0.3-0.3-0.6-0.1-0.3,0.4c0.9,1.9,6.1,7.3,13.8,7.3c11,0,23-9.9,35.4-25.9c1.8-2.3,3.4-4.3,4.8-6.1c1,2,1.7,3.6,2,4.1
				c0.6,1.2,0,2.1-1.4,2.1c-0.5,0-1,0-1,0l-1.1,2.3H204l1.1-2.3c-0.6,0-1.1,0-1.7,0c-1.2,0-1.8,0-2.5-1.5c-0.4-0.8-2.1-4.5-3.9-8.1
				c3.2-4.1,4.8-6.1,4.8-6.1c12.5-16.1,23.9-28.2,36.1-27.5c3.7,0,8.2,2.2,10.9,5.5C249.4,14.4,249.8,14.1,249.2,13.3z"/>
			<path class="st258" d="M299.1,9.4l-7.3,3.8l-8.1,16.1l-4.1,0l-1.1,2.2v0h4.1c-1.4,2.8-2.4,4.8-3.2,6.3
				c-7.9,10.2-13.3,14.7-17.2,14c-2.7-0.5-3.8-4.1-3-8.3c2.9-0.5,10.2-2.5,13.7-7c4.6-5.9-0.9-10.7-8.6-6.3
				c-4.3,2.4-8.1,6.7-9.9,12.7c-0.4,1.2-0.6,2.4-0.7,3.5c-1.2,1.4-3.2,3.7-5.5,5.1c-3,1.7-4.9,0.6-3.7-2.8
				c1.6-4.4,6.6-10.2,7.7-15.3c1-4.7-3.1-7.1-8.2-3.1c-2.1,1.6-4.3,4.4-6.4,7.2c-0.2,0.2-0.4,0.1-0.2-0.2c1.9-3.4,4.3-7.9,4.3-7.9
				h-9.5l-1.1,2.3h4l-3.2,6.3c-7.9,10.2-13.5,14.7-17.3,14c-2.7-0.5-3.8-4.1-3-8.3c2.9-0.5,10.2-2.5,13.7-7
				c4.8-6.2-1.2-10.6-8.6-6.3c-4.3,2.4-8.1,6.7-9.9,12.7c-3.2,10.7,4,15,13,9.4c3.3-2.1,6.7-5.7,9.1-8.8c0.2-0.2,0.4-0.2,0.2,0.1
				l-5,10.1h5.2c0,0,7.9-16.3,15.3-22.2c1.7-1.4,4.7-2,2.9,2.2c-2.1,4.7-5.1,7.9-7.1,13.4c-1.9,5.2,1,8.8,6.4,6.5
				c2.7-1.1,5.3-3.7,6.9-5.6c0.2,6.8,6.4,8.9,13.7,4.2c3.2-2,8.3-8.1,9-8.8c0.2-0.2,0.4-0.1,0.2,0.2c-0.2,0.3-0.4,0.8-0.7,1.3
				c-3.8,7.7,0.8,12.4,8,7.2c4.3-3.2,7.7-8.5,7.7-8.5v-1.8c0,0-4.6,6.8-9.1,9.4c-4,2.4-4.1-0.8-2.6-4c1.8-3.8,1.8-3.7,7.9-15.7
				l6.8,0l1.1-2.3l-6.8,0L299.1,9.4z M265.7,31.6c3-2.7,5.8-1.9,4.4,1.7c-2.5,6.5-10.6,8.7-10.6,8.7S260.8,36.1,265.7,31.6z
				 M218.1,31.6c3-2.7,5.8-1.9,4.4,1.7c-2.5,6.5-10.6,8.7-10.6,8.7S213.1,36.1,218.1,31.6z"/>
		</g>
	</g>
	<g>
		<path class="st259" d="M80.5,403.7c0-0.3,0.2-0.5,0.5-0.5h5.7c3.2,0,5.3,2.1,5.3,4.8c0,2-1.3,3.5-2.5,4.2c1.4,0.6,3.1,1.8,3.1,4.2
			c0,2.9-2.3,5-5.7,5H81c-0.3,0-0.5-0.2-0.5-0.5V403.7z M87.1,419.7c1.9,0,3.3-1.4,3.3-3.3c0-1.8-1.7-3.2-3.7-3.2h-4.3v6.5H87.1z
			 M86.7,411.4c2,0,3.1-1.4,3.1-3.2c0-1.9-1.1-3.1-3.1-3.1h-4.2v6.4H86.7z"/>
		<path class="st259" d="M101.8,420.7l7.9-17.5c0.1-0.2,0.2-0.3,0.4-0.3h0.3c0.2,0,0.4,0.1,0.4,0.3l7.9,17.5
			c0.2,0.3-0.1,0.7-0.4,0.7h-1c-0.2,0-0.4-0.2-0.4-0.3l-1.9-4.3h-9.2l-1.9,4.3c-0.1,0.1-0.2,0.3-0.4,0.3h-1
			C101.9,421.4,101.7,421.1,101.8,420.7z M114.2,415.2c-1.3-2.8-2.5-5.7-3.8-8.5h-0.2l-3.8,8.5H114.2z"/>
		<path class="st259" d="M129.1,403.7c0-0.3,0.2-0.5,0.5-0.5h6.7c3.1,0,5.7,2.4,5.7,5.5c0,2.4-1.6,4.4-3.8,5.3l3.6,6.6
			c0.2,0.3,0,0.8-0.4,0.8h-1.3c-0.2,0-0.4-0.1-0.4-0.2l-3.5-6.9h-5v6.6c0,0.3-0.2,0.5-0.5,0.5h-1c-0.3,0-0.5-0.2-0.5-0.5V403.7z
			 M136.2,412.6c2,0,3.7-1.7,3.7-3.8c0-2-1.7-3.7-3.7-3.7h-5v7.5H136.2z"/>
		<path class="st259" d="M161.9,402.9c2.6,0,4.5,0.9,6.3,2.4c0.2,0.2,0.2,0.5,0,0.7l-0.7,0.7c-0.2,0.3-0.4,0.2-0.7,0
			c-1.4-1.2-3.2-2-5-2c-4.1,0-7.3,3.5-7.3,7.5c0,4,3.1,7.5,7.3,7.5c2.3,0,3.6-0.9,5-2c0.3-0.2,0.5-0.2,0.6-0.1l0.8,0.7
			c0.2,0.2,0.2,0.5,0,0.7c-1.8,1.7-4,2.5-6.3,2.5c-5.2,0-9.4-4.1-9.4-9.3S156.7,402.9,161.9,402.9z"/>
		<path class="st259" d="M179.7,403.7c0-0.3,0.2-0.5,0.5-0.5h10.2c0.3,0,0.5,0.2,0.5,0.5v0.8c0,0.3-0.2,0.5-0.5,0.5h-8.7v6.3h7.5
			c0.3,0,0.5,0.2,0.5,0.5v0.8c0,0.3-0.2,0.5-0.5,0.5h-7.5v6.6h8.7c0.3,0,0.5,0.2,0.5,0.5v0.8c0,0.3-0.2,0.5-0.5,0.5h-10.2
			c-0.3,0-0.5-0.2-0.5-0.5V403.7z"/>
		<path class="st259" d="M202.7,403.7c0-0.3,0.2-0.5,0.5-0.5h1c0.3,0,0.5,0.2,0.5,0.5v16h7.5c0.3,0,0.5,0.2,0.5,0.5v0.8
			c0,0.3-0.2,0.5-0.5,0.5h-9c-0.3,0-0.5-0.2-0.5-0.5V403.7z"/>
		<path class="st259" d="M230.7,402.9c5.2,0,9.4,4.2,9.4,9.4s-4.2,9.3-9.4,9.3s-9.3-4.1-9.3-9.3S225.5,402.9,230.7,402.9z
			 M230.7,419.8c4.1,0,7.5-3.4,7.5-7.5c0-4.1-3.4-7.6-7.5-7.6c-4.1,0-7.5,3.4-7.5,7.6C223.2,416.5,226.6,419.8,230.7,419.8z"/>
		<path class="st259" d="M251.6,403.4c0-0.3,0.2-0.5,0.5-0.5h0.6l11.7,14.6c0,0,0,0,0.1,0v-13.9c0-0.3,0.2-0.5,0.5-0.5h0.9
			c0.3,0,0.5,0.2,0.5,0.5v17.5c0,0.3-0.2,0.5-0.5,0.5h-0.5l-11.9-14.9h0v14.1c0,0.3-0.2,0.5-0.5,0.5h-0.9c-0.3,0-0.5-0.2-0.5-0.5
			V403.4z"/>
		<path class="st259" d="M276.8,420.7l7.9-17.5c0.1-0.2,0.2-0.3,0.4-0.3h0.3c0.2,0,0.4,0.1,0.4,0.3l7.9,17.5
			c0.2,0.3-0.1,0.7-0.4,0.7h-1c-0.2,0-0.4-0.2-0.4-0.3l-1.9-4.3h-9.2l-1.9,4.3c-0.1,0.1-0.2,0.3-0.4,0.3h-1
			C276.8,421.4,276.6,421.1,276.8,420.7z M289.1,415.2c-1.3-2.8-2.5-5.7-3.8-8.5h-0.2l-3.8,8.5H289.1z"/>
	</g>
</g>
</svg>
